<svg id="Capa_1" data-name="Capa 1" xmlns="http://www.w3.org/2000/svg" viewBox="0 0 551.1 556.01"><defs><style>.cls-1{fill:#fceeb5;}.cls-2{fill:#f29991;}.cls-3{fill:#fcd7c2;}.cls-4{fill:#e7d5ea;}</style></defs><title>logosinestrellaslogopaz</title><path d="M569.87,410.21a306.37,306.37,0,0,1-3.11,46.32,277,277,0,0,1-9.56,42.29A280.45,280.45,0,0,1,534,552.68a269.93,269.93,0,0,1-34.05,47.47,273.8,273.8,0,0,1-36,33.74,285.69,285.69,0,0,1-59.14,35.38,277.66,277.66,0,0,1-59.37,18.61,261.58,261.58,0,0,1-64.71,4.33,270.81,270.81,0,0,1-80.28-16.44,279.47,279.47,0,0,1-55.48-27.65A283.22,283.22,0,0,1,90.8,602.46a264.92,264.92,0,0,1-33.38-45,275.26,275.26,0,0,1-32.83-84.81,277.73,277.73,0,0,1-5.21-38.23c-.58-9.35-.78-18.69-.46-28.05A296.07,296.07,0,0,1,23,366.06a274.23,274.23,0,0,1,18.17-61.24,282.64,282.64,0,0,1,43.5-70.9,269.37,269.37,0,0,1,47.13-44.21,275.23,275.23,0,0,1,46.55-27.62,265.7,265.7,0,0,1,47.57-17,274.2,274.2,0,0,1,44.65-7.56,302.89,302.89,0,0,1,38.11-.56,273.89,273.89,0,0,1,189,90.08,276.51,276.51,0,0,1,31.87,43.16,283.18,283.18,0,0,1,35.36,93c1.59,8.31,2.57,16.75,3.42,25.18C569.2,396.55,569.51,404.79,569.87,410.21ZM295,689.31c7.1-.38,14.21-.71,21.31-1.17a211.72,211.72,0,0,0,28.29-3.66,275.71,275.71,0,0,0,60.65-19.32,279.59,279.59,0,0,0,52.92-31.37,274.82,274.82,0,0,0,40.54-37.66,267.76,267.76,0,0,0,37.16-54.31,270.67,270.67,0,0,0,20.7-53.34,281.34,281.34,0,0,0,9.26-56,274.28,274.28,0,0,0-.71-42.9,269.57,269.57,0,0,0-8.24-46.22,278.38,278.38,0,0,0-67.57-120.22,267.86,267.86,0,0,0-57.09-45.41,275.82,275.82,0,0,0-52.7-24.08,249.93,249.93,0,0,0-41.67-10.11,330,330,0,0,0-35.07-3.5,245.21,245.21,0,0,0-36.65,1.45A279.19,279.19,0,0,0,229.05,148a266.51,266.51,0,0,0-60.36,23,274.17,274.17,0,0,0-33.21,20.56A260.34,260.34,0,0,0,104.2,218a278.34,278.34,0,0,0-37.56,46.31,283.09,283.09,0,0,0-26.33,52.15,274,274,0,0,0-12.42,43,278.07,278.07,0,0,0-5.5,47.83,275.71,275.71,0,0,0,36,144.81,274.51,274.51,0,0,0,22.29,33,264.79,264.79,0,0,0,35.17,36.63,275.18,275.18,0,0,0,47.87,33.5,272.38,272.38,0,0,0,50.91,21.63A284.11,284.11,0,0,0,295,689.31Z" transform="translate(-18.77 -136.59)"/><path class="cls-1" d="M295,689.31a284.11,284.11,0,0,1-80.35-12.43,272.38,272.38,0,0,1-50.91-21.63,275.18,275.18,0,0,1-47.87-33.5,264.79,264.79,0,0,1-35.17-36.63A269.69,269.69,0,0,1,30.24,481.56a271.65,271.65,0,0,1-7.85-74.21,278.07,278.07,0,0,1,5.5-47.83,274,274,0,0,1,12.42-43,283.09,283.09,0,0,1,26.33-52.15A278.34,278.34,0,0,1,104.2,218a260.34,260.34,0,0,1,31.28-26.48A274.17,274.17,0,0,1,168.69,171a266.51,266.51,0,0,1,60.36-23,279.19,279.19,0,0,1,37.06-6.46,245.21,245.21,0,0,1,36.65-1.45,330,330,0,0,1,35.07,3.5,249.93,249.93,0,0,1,41.67,10.11,275.82,275.82,0,0,1,52.7,24.08,267.86,267.86,0,0,1,57.09,45.41,278.38,278.38,0,0,1,67.57,120.22,269.57,269.57,0,0,1,8.24,46.22,274.28,274.28,0,0,1,.71,42.9,281.34,281.34,0,0,1-9.26,56,270.67,270.67,0,0,1-20.7,53.34,267.76,267.76,0,0,1-37.16,54.31,274.82,274.82,0,0,1-40.54,37.66,279.59,279.59,0,0,1-52.92,31.37,275.71,275.71,0,0,1-60.65,19.32,211.72,211.72,0,0,1-28.29,3.66C309.19,688.6,302.08,688.93,295,689.31ZM547.53,414.59a228.71,228.71,0,0,0-2.21-32.94,260.09,260.09,0,0,0-14.26-57.13,265.68,265.68,0,0,0-25.85-51,250.77,250.77,0,0,0-115.6-95.6,253.06,253.06,0,0,0-83.19-18.53,248.41,248.41,0,0,0-59.92,4.36A253.3,253.3,0,0,0,131.16,219a241.46,241.46,0,0,0-32.95,33.8,260.48,260.48,0,0,0-35.35,58,255.2,255.2,0,0,0-14.23,41.72,274.72,274.72,0,0,0-7,43.76,246.4,246.4,0,0,0,1.53,52.91,260.36,260.36,0,0,0,7,34.76A253.17,253.17,0,0,0,98.4,577.23a238.42,238.42,0,0,0,23.26,24.52,256.4,256.4,0,0,0,111.09,60.57,262,262,0,0,0,45.43,7.17,240,240,0,0,0,62.8-3.75,252.21,252.21,0,0,0,66.54-22.65,257.6,257.6,0,0,0,56.16-38.24,250,250,0,0,0,34-37.1A252.39,252.39,0,0,0,542,469.22,258.4,258.4,0,0,0,547.53,414.59Z" transform="translate(-18.77 -136.59)"/><path d="M547.53,414.59A258.4,258.4,0,0,1,542,469.22a252.39,252.39,0,0,1-44.36,98.53,250,250,0,0,1-34,37.1,257.6,257.6,0,0,1-56.16,38.24A252.21,252.21,0,0,1,341,665.74a240,240,0,0,1-62.8,3.75,262,262,0,0,1-45.43-7.17,256.4,256.4,0,0,1-111.09-60.57A238.42,238.42,0,0,1,98.4,577.23a253.17,253.17,0,0,1-48.23-93.29,260.36,260.36,0,0,1-7-34.76,246.4,246.4,0,0,1-1.53-52.91,274.72,274.72,0,0,1,7-43.76,255.2,255.2,0,0,1,14.23-41.72,260.48,260.48,0,0,1,35.35-58,241.46,241.46,0,0,1,33-33.8A253.3,253.3,0,0,1,246.5,163.71a248.41,248.41,0,0,1,59.92-4.36,253.06,253.06,0,0,1,83.19,18.53,251.31,251.31,0,0,1,115.6,95.6,265.68,265.68,0,0,1,25.85,51,260.09,260.09,0,0,1,14.26,57.13A228.71,228.71,0,0,1,547.53,414.59Zm-252.75,252a252,252,0,0,0,40.13-3.14A254.39,254.39,0,0,0,399,643.33a259.22,259.22,0,0,0,54.79-34.67,246.94,246.94,0,0,0,31.91-31.45A242.52,242.52,0,0,0,521.82,520a254.57,254.57,0,0,0,19.9-68.89A251.52,251.52,0,0,0,543.78,402a258.69,258.69,0,0,0-9.69-57.34,254.93,254.93,0,0,0-29.64-66.08A248.31,248.31,0,0,0,480,246a244,244,0,0,0-35-32.41,247.69,247.69,0,0,0-38.52-24.25,244.94,244.94,0,0,0-45.1-17.49,237.44,237.44,0,0,0-40.2-7.84,267.82,267.82,0,0,0-44.33-.77,239.61,239.61,0,0,0-37.46,5.48,244.52,244.52,0,0,0-61.23,22.66,252.51,252.51,0,0,0-53.26,37.81,244.68,244.68,0,0,0-39.88,47.74,256.19,256.19,0,0,0-29.26,62.6,259.5,259.5,0,0,0-11.32,67,250.89,250.89,0,0,0,56.11,167.84,261.18,261.18,0,0,0,34.73,34.7A251.15,251.15,0,0,0,258,663.81,257.67,257.67,0,0,0,294.78,666.54Z" transform="translate(-18.77 -136.59)"/><path class="cls-1" d="M294.78,666.54A257.67,257.67,0,0,1,258,663.81a251.15,251.15,0,0,1-122.65-54.76,261.18,261.18,0,0,1-34.73-34.7,246,246,0,0,1-28.44-43.47A253.46,253.46,0,0,1,44.48,406.51a259.5,259.5,0,0,1,11.32-67,256.19,256.19,0,0,1,29.26-62.6,244.68,244.68,0,0,1,39.88-47.74,252.51,252.51,0,0,1,53.26-37.81,244.52,244.52,0,0,1,61.23-22.66,239.61,239.61,0,0,1,37.46-5.48,267.82,267.82,0,0,1,44.33.77,237.44,237.44,0,0,1,40.2,7.84,244.94,244.94,0,0,1,45.1,17.49A247.69,247.69,0,0,1,445,213.59,244,244,0,0,1,480,246a248.31,248.31,0,0,1,24.45,32.59,254.93,254.93,0,0,1,29.64,66.08A258.69,258.69,0,0,1,543.78,402a251.52,251.52,0,0,1-2.06,49.06A254.57,254.57,0,0,1,521.82,520a242.52,242.52,0,0,1-36.08,57.25,246.94,246.94,0,0,1-31.91,31.45A259.22,259.22,0,0,1,399,643.33a254.39,254.39,0,0,1-64.13,20.07A252,252,0,0,1,294.78,666.54ZM391.87,432a37.11,37.11,0,0,0,3.85,10.88,14.22,14.22,0,0,0,9.48,7.14,24.4,24.4,0,0,0,12.09-.39,30.1,30.1,0,0,0,10.65-5.38c6.84-5.34,11.14-12.21,12.06-21,.5-4.73,0-9.42-.38-14.13-.24-3.27-.52-6.53-.71-9.8a3.79,3.79,0,0,1,2.37-4.06,57.14,57.14,0,0,1,13.81-3.9c2-.29,2.54.13,2.5,2.14a51.53,51.53,0,0,1-.67,6.43c-.67,4.43-1.45,8.85-1.15,13.36.44,6.81,4.37,11,10.85,11.55a15.6,15.6,0,0,0,8.56-1.93,62.09,62.09,0,0,0,20.63-16.88c4.92-6.33,7.81-13.34,7.4-21.52a38,38,0,0,0-3.83-14.27c-4.55-9.76-7.57-20.05-10.46-30.35-2.76-9.85-5-19.85-7.24-29.82-3.14-13.71-9.7-25.31-20.71-34.21-6-4.84-12.57-8.63-20.27-9.88-8.69-1.42-14.43.71-18.6,8.69a39.32,39.32,0,0,0-3.5,8.38c-1.74,6.81-3.22,13.69-4.58,20.59-2.47,12.46-4.64,25-7.2,37.44-3.16,15.43-6.66,30.78-9.86,46.2-1.42,6.89-2.45,13.85-3.67,20.78a9.56,9.56,0,0,1-.47,1.43l-.48-.07c0-.86,0-1.73,0-2.59A50.44,50.44,0,0,0,389,390.72a20.57,20.57,0,0,0-4.92-7.58,9.38,9.38,0,0,0-11.11-1.48,28.65,28.65,0,0,0-3.76,2.56c-1.85,1.39-3.62,2.9-5.48,4.29a20.18,20.18,0,0,1-3.23,2c-2,.94-3.18.71-3.75-1.85a113.07,113.07,0,0,1-2.21-20.25A383.65,383.65,0,0,1,358,302.17c1.53-11.57,3-23.16,3.37-34.85.21-6.26,0-12.48-1.73-18.56s-5-11.2-10.74-14.41A34.36,34.36,0,0,0,329,230.12a15.41,15.41,0,0,0-8.17,3.15c-4.85,3.57-7.34,8.63-8.55,14.3-2.16,10.17-2.28,20.5-1.66,30.82,1,16.68,2.36,33.35,3.31,50a320.43,320.43,0,0,1,0,37.19c-.93,15.88-2.28,31.74-3.35,47.62a103.15,103.15,0,0,0,3.11,34c2.3,8.48,7.27,14.66,15.61,17.88a27.16,27.16,0,0,0,10.54,2A131.07,131.07,0,0,0,353,466.2c7.63-1,15.13-2.47,22.27-5.54a23.66,23.66,0,0,0,13.3-14.31A58.94,58.94,0,0,0,391.44,434C391.53,433.34,391.72,432.69,391.87,432ZM333.52,573.92l.49.16c.43,1.07.9,2.14,1.3,3.22,2.44,6.6,4.81,13.22,7.32,19.79a48.73,48.73,0,0,0,9.42,16,24.32,24.32,0,0,0,11.35,7.3c6.88,2,13.29.54,19.42-2.76,9.58-5.16,13.39-13.42,12.71-23.86a52.63,52.63,0,0,0-3.72-15.57q-3.88-10.07-7.76-20.14c-.24-.61-.4-1.26-.59-1.89a5.53,5.53,0,0,1,1.86,1.63c6.28,8.28,12.52,16.6,18.84,24.85a62.28,62.28,0,0,0,6,7.1c5,4.8,10.32,5.46,16.22,2a43.36,43.36,0,0,0,16.45-17.67,20.6,20.6,0,0,0,1.81-5.44c1.56-7.66.11-14.93-3.11-21.93a66.9,66.9,0,0,0-9.67-14.82c-4.28-5.15-9.14-9.62-15.22-12.61a27.7,27.7,0,0,0-24.55-.41c-5.62,2.5-9.88,6.7-14,11.09a15.43,15.43,0,0,0-3.73,7.14c-.14.6-.28,1.19-.45,1.94a11.32,11.32,0,0,0-7.77-1.24c-7.62,1.42-11.83,8.07-10.26,14.46a41,41,0,0,0,2.28,6.79c1.79,4.1,3.86,8.08,5.71,12.16a84.21,84.21,0,0,1,5.74,15.23,15.8,15.8,0,0,1,.48,3.55c0,1-.12,2.23-1.36,2.53s-1.74-.72-2.18-1.53a53.75,53.75,0,0,1-3.64-7.28c-2.67-7.53-5.1-15.15-7.67-22.71a66.44,66.44,0,0,0-2.65-6.93,9.65,9.65,0,0,0-6.86-5.52,14,14,0,0,0-13.62,5.21c-.58.83-1,1.74-1.7,2.86-3-3.34-6.7-3.11-10.52-2.41-2.27.42-4.58.7-6.89.93-6.36.66-12.73,1.25-19.09,1.89-3.71.38-6.84,1.68-8.42,5.39-.08.17-.32.27-.61.5a18.61,18.61,0,0,0-6.78-6.7,28.31,28.31,0,0,0-15.8-4.09c-9.57.32-16.75,4.39-20.7,13.34-3.37,7.65-3.45,15.18,1.33,22.4a36.33,36.33,0,0,0,6.56,7.28c2.65,2.32,5.31,4.65,7.09,7.75,1,1.75,1,2.8.15,3.21s-1.85-.22-2.78-1.75c-.75-1.23-1.36-2.55-2.22-3.7-2-2.65-4.47-4.55-7.93-4.82-4.48-.34-7.69,1.75-10,5.41a19.92,19.92,0,0,0,1,21.54,21.43,21.43,0,0,0,7.77,6.62,34.8,34.8,0,0,0,14.44,4c8.62.29,15.31-3.05,20.13-10.29a26.71,26.71,0,0,0,0-30.23,49.33,49.33,0,0,0-7.38-8.49,78.1,78.1,0,0,1-5.57-5.93c-.55-.63-1.45-1.68-.29-2.47s1.63.45,2.29,1.1a60.91,60.91,0,0,0,5,4.77c3.85,3,9,2,12-1.71.68-.83,1.29-1.72,2.08-2.79,1.24,2.74,2.83,4.88,5.55,5.92s5.32.21,8.05-.31a21.34,21.34,0,0,1,.34,2.15c.33,6.07.7,12.14,1,18.21s.36,12.15.58,18.22c.27,7.56,4.48,12.63,11.47,13.9a12.63,12.63,0,0,0,15.09-10.32,24.86,24.86,0,0,0,0-6.45c-.32-3.1-1-6.16-1.41-9.25q-1.82-12.45-3.57-24.92a27.84,27.84,0,0,1,0-3.67C327.72,581.12,331.93,579.65,333.52,573.92ZM194.4,282h-.25c0-5.12.12-10.24,0-15.36a28.76,28.76,0,0,0-2.58-10.89c-2.95-6.61-8.67-8.54-14.5-7.54A39.67,39.67,0,0,0,154.18,261a25.59,25.59,0,0,0-7.08,15.68,94,94,0,0,0-.08,15.56c.73,7.62,2.2,15.18,3.28,22.77.51,3.63,1,7.28,1.24,10.94.15,2-.33,2.62-2.1,3-4.55.84-9.13,1.55-13.72,2.18-1.48.2-2-.33-2.22-1.89a16.66,16.66,0,0,1-.06-4.29c.73-5.31,1.55-10.6,2.41-15.89A79.44,79.44,0,0,0,137,289.61a23.52,23.52,0,0,0-1.07-5.39c-2-6-6.62-8.25-12.66-6.24a37,37,0,0,0-9.2,4.58A71.48,71.48,0,0,0,98.46,297c-6,7.48-9,16-8,25.66.67,6.36,1.78,12.66,2.71,19,1.34,9.15,1.76,18.28-.12,27.44-.94,4.61-1.76,9.27-2.25,14-1,9.93,1.46,18.92,8.13,26.48a58,58,0,0,0,21.74,15,34.67,34.67,0,0,0,7.35,2.09c4.94.85,8.22-1.37,9.47-6.22a32.72,32.72,0,0,0,.7-12.15c-.89-7.22-1.94-14.42-2.88-21.63-.49-3.72-1-7.45-1.31-11.19-.18-2.07.55-3,2.54-3a110.6,110.6,0,0,1,11.93.77c2.41.31,3.35,1.71,3.42,4.22a29.77,29.77,0,0,1-.23,5.26c-.86,5.78-1.82,11.53-2.79,17.29-1.18,6.95-2.15,13.9-1.24,21,.68,5.32,2.17,10.33,5.39,14.69,6.95,9.42,16.81,13.52,28,14.71,5.81.62,10.37-2.68,12.4-8.25a45.49,45.49,0,0,0,2.83-18.85c-.76-11.17-1.89-22.31-2.8-33.47-.82-10-1.68-20.08-2.29-30.13-.83-13.52-.15-27,.72-40.52C192.7,306.77,193.57,294.4,194.4,282ZM307.14,351.2c-.39-8.3-.66-16.62-1.19-24.92A237,237,0,0,0,298.2,279a128.53,128.53,0,0,0-10.06-26.4c-3.85-7.27-8.42-13.93-15.09-19a32.54,32.54,0,0,0-39.85.76,65.84,65.84,0,0,0-15.94,20.22c-5.6,10.52-9.16,21.79-12,33.3a177.51,177.51,0,0,0-4.42,26c-.91,9.71-1.78,19.44-2.19,29.17a263.24,263.24,0,0,0,1.24,37.87c1.59,15.54,4.1,30.9,9.24,45.72,3.43,9.87,7.68,19.32,14,27.69,4.63,6.09,10.17,11.07,17.24,14.16a32.08,32.08,0,0,0,21.79,1.74c6.78-1.85,12.28-5.69,17-10.74,6.46-6.88,10.74-15.11,14.25-23.73a168.52,168.52,0,0,0,9.62-35.58C305.83,384,306.83,367.64,307.14,351.2ZM193.31,549a5.36,5.36,0,0,1-.86.73q-5.69,2.82-11.4,5.62c-5.17,2.51-10.37,5-15.54,7.52-5.37,2.63-8.86,7-11.07,12.44-2.48,6.12-1.69,9.11,3.62,13.06,4.42,3.29,8.92,6.48,13.46,9.62,3.41,2.37,6.87,4.68,10.42,6.85s7.18,2.62,10.6.09a23.32,23.32,0,0,0,9.51-16.32c.59-4.57-1.75-7.89-6.13-9.38-1.52-.52-3-1-4.55-1.51a23.6,23.6,0,0,1-2.46-1.27c1-.58,1.63-1,2.27-1.28,7.14-3.41,14.22-7,21.44-10.19a28,28,0,0,0,15.18-15.82,8.58,8.58,0,0,0-2.87-10.5c-.56-.44-1.16-.85-1.75-1.25-6.92-4.76-13.83-9.53-20.78-14.25a16.09,16.09,0,0,0-3.38-1.79c-3-1.12-6-.91-8.39,1.17-4.4,3.86-7.69,8.56-8.76,14.5a7.66,7.66,0,0,0,1.28,5.71,11,11,0,0,0,4.78,3.87C189.65,547.38,191.4,548.12,193.31,549Zm-59.69-9.37,5.17,4.83c-.65.68-1.12,1.2-1.61,1.69-1.52,1.54-3.15,3-4.55,4.61a11.46,11.46,0,0,0-.61,14.6,20.11,20.11,0,0,0,7.4,6.33,9.82,9.82,0,0,0,11.42-1.29,25.14,25.14,0,0,0,4-4.46c1.59-2.2,2.93-4.58,4.45-6.83,5.21-7.76,10.56-15.43,15.66-23.27,3.26-5,6.25-10.22,9.16-15.46a18.45,18.45,0,0,0,1.91-5.88c1.6-9.8-7-18.39-14.15-20.29a14.37,14.37,0,0,0-10.24,1.3c-3.24,1.56-6.41,3.26-9.57,5-8.72,4.71-17.43,9.43-26.1,14.23-4.13,2.28-8.25,4.58-12.19,7.16-4.4,2.88-6.37,7.09-5.42,12.39a15.16,15.16,0,0,0,3.73,7.41,16.4,16.4,0,0,0,1.91,1.81c4.72,3.92,9.49,4.07,14.42.39C130.1,542.55,131.72,541.13,133.62,539.59Zm-23.86-48.8c.93,1.33,1.77,2.58,2.65,3.79a23.19,23.19,0,0,0,19.15,10.22c9.41.2,17.56-2.91,23.91-10.15a23.52,23.52,0,0,0,5.67-20.5c-.9-5.11-3.16-9.72-5.56-14.24a52.76,52.76,0,0,0-4.74-7.76c-4-5.18-9.16-6.89-15.21-3.73-2.27,1.19-4.51,2.42-6.77,3.61-8.07,4.23-16.11,8.52-24.23,12.65-3.77,1.91-7.79,3.35-11.56,5.27a30.09,30.09,0,0,0-6.55,4.35c-4.84,4.35-5.48,10.33-2.59,16A12.56,12.56,0,0,0,98.4,497a24.54,24.54,0,0,0,5.67-2.48C106,493.43,107.79,492.08,109.76,490.79Zm344.35-39.92c-1,0-1.68,0-2.32,0s-1.12,0-1.67.09c-8.76.78-15.45,4.92-19.83,12.54-3.93,6.81-4.17,14-1.31,21.25a42.94,42.94,0,0,0,13.11,17.45c6.78,5.63,14.65,9,23,11.62a41.91,41.91,0,0,0,13.94,2c14.29-.49,25.54-14,23.56-28.18-1.12-8-5-14.41-10.83-19.78A70.37,70.37,0,0,0,464.8,452.6,32.12,32.12,0,0,0,454.11,450.87Zm8.78,100.57a24.16,24.16,0,0,0,3.06-.53,13.59,13.59,0,0,0,9.78-10.53,12.35,12.35,0,0,0-4.6-13.27c-3.19-2.53-6.65-4.71-9.93-7.13q-16-11.81-31.13-24.77a28.75,28.75,0,0,0-3.83-2.87,10.08,10.08,0,0,0-11.11.13,13.85,13.85,0,0,0-5.46,6.8,9.48,9.48,0,0,0,.48,9.19,24.51,24.51,0,0,0,3.73,4.63c1.78,1.71,3.84,3.13,5.75,4.71,6.58,5.46,13.22,10.85,19.69,16.43,5,4.34,9.78,9,14.72,13.39C456.53,549.85,459.35,551.48,462.89,551.44ZM301.57,534.91c.17-1.18.27-2.21.47-3.22.65-3.28,1.13-6.62,2-9.84,2.41-8.39,7.52-14.41,16.08-16.94,3.66-1.09,7.45-1.74,11.19-2.58.46-.1,1.06,0,1.4-.2.53-.38,1.23-1,1.24-1.5a2.13,2.13,0,0,0-1.2-1.51,16.92,16.92,0,0,0-3.29-.61,55.59,55.59,0,0,1-12.21-3.38,20.7,20.7,0,0,1-10.53-9.38c-2.81-4.89-3.91-10.26-4.64-15.75a15.64,15.64,0,0,0-.48-2.83,1.59,1.59,0,0,0-1.2-.89,1.73,1.73,0,0,0-1.33.72,5.2,5.2,0,0,0-.48,1.84c-.43,2.43-.76,4.89-1.27,7.31a29.69,29.69,0,0,1-5.2,12.26c-3.3,4.32-7.82,6.8-12.94,8.18-3.53,1-7.16,1.59-10.76,2.31-.94.19-1.71.48-1.84,1.54s.59,1.55,1.85,1.78c.24,0,.49,0,.72.07,3.73.82,7.54,1.41,11.19,2.53a21.77,21.77,0,0,1,14.24,12.3,49.16,49.16,0,0,1,2.73,8.41c.72,3,1.07,6.12,1.62,9.38Zm226.88-94.58a9.49,9.49,0,0,0-2.21-1.46c-1.93-.51-3.92-.78-5.85-1.26a12.6,12.6,0,0,1-9.45-8.67c-.6-1.82-1-3.7-1.47-5.56-.25-1-.3-2.07-.61-3.05-.14-.44-.77-1.09-1.06-1a2.52,2.52,0,0,0-1.35,1.06c-.24.36-.16.93-.26,1.4-.47,2.1-.85,4.24-1.43,6.31-1.3,4.63-4.12,7.89-8.86,9.23-1.76.5-3.56.87-5.35,1.29a13.72,13.72,0,0,0-2.31.59,1.45,1.45,0,0,0-.66,1.12,1.56,1.56,0,0,0,.72,1.09,5.53,5.53,0,0,0,1.61.42c2,.48,4.07.86,6.06,1.45a11.77,11.77,0,0,1,8.19,7.45,27.67,27.67,0,0,1,1,3c.43,1.78.75,3.59,1.12,5.39.18.93.19,2.09,1.5,2.09s1.19-1.09,1.34-1.94.28-1.73.42-2.6c1.15-7.33,4.72-12.47,12.45-13.92,1.49-.28,3-.6,4.43-1A10.51,10.51,0,0,0,528.45,440.33Zm-426.51-5.79a8.42,8.42,0,0,0-1.84-1.19c-1.15-.31-2.36-.43-3.53-.65-6.89-1.24-11.46-5-13-12-.41-1.87-.83-3.74-1.21-5.61-.14-.69-.36-1.26-1.14-1.32s-1.28.49-1.43,1.28c-.28,1.49-.47,3-.84,4.47-2.19,8.7-5.06,11.38-13.72,13.26-.7.15-1.41.26-2.12.39-.32.06-.7,0-.93.2-.46.35-1.11.77-1.2,1.26-.16.86.6,1.19,1.36,1.33.31.06.64.06,1,.13L68,437c5.59,1.2,8.84,4.83,10.41,10.14.41,1.38.67,2.8,1,4.2a22,22,0,0,0,.56,2.82c.18.5.77.86,1.18,1.29.42-.41,1-.74,1.22-1.23a7.56,7.56,0,0,0,.37-1.87c.34-1.64.59-3.31,1-4.92a14,14,0,0,1,9.63-10.13,32.83,32.83,0,0,1,3.24-.85c1.09-.24,2.23-.3,3.3-.61A9.38,9.38,0,0,0,101.94,434.54Zm98.93,173.29c0,7.1,5.25,12.54,12.06,12.5a12.75,12.75,0,0,0,12.56-13,11.91,11.91,0,0,0-12.34-12.42C206.27,594.89,200.88,600.58,200.87,607.83ZM433.35,242.11c-.33-.4-.51-.8-.82-1a7.73,7.73,0,0,0-1.6-.45c-2.08-.53-4.23-.9-6.25-1.61a12.11,12.11,0,0,1-8.19-8.7c-.6-2.32-1-4.68-1.55-7-.2-.89-.1-2.18-1.38-2.18-1.49,0-1.19,1.4-1.41,2.35-.66,2.79-1.17,5.63-2,8.36a10.47,10.47,0,0,1-7,7.06c-2.27.75-4.62,1.22-6.95,1.79-.75.19-1.72.08-1.81,1.17s.86,1.21,1.61,1.44c.45.14.95.15,1.41.28,2,.56,4,1,6,1.74a11,11,0,0,1,6.83,7c.83,2.4,1.29,4.92,1.9,7.4a6.46,6.46,0,0,0,.31,1.63,1.77,1.77,0,0,0,1.19.91c.4,0,.93-.49,1.19-.9s.15-.93.26-1.39c.55-2.34,1-4.71,1.7-7a11.77,11.77,0,0,1,8-8c2-.62,4-1,6.05-1.45a7,7,0,0,0,1.6-.43C432.77,243,433,242.52,433.35,242.11Zm-39.52-19.23c-.58-.52-.95-1.07-1.45-1.26a18,18,0,0,0-2.57-.55c-4.21-.9-7-3.31-8-7.58-.35-1.48-.65-3-1-4.45-.15-.72-.3-1.47-1.24-1.49s-1.15.74-1.33,1.44c-.39,1.46-.77,2.93-1.08,4.41-.94,4.43-3.65,6.95-8.08,7.69-.63.11-1.25.26-1.88.39-.8.17-1.65.34-1.64,1.39s1,1.11,1.72,1.32a23.1,23.1,0,0,0,2.33.53,8.94,8.94,0,0,1,7.47,6.88c.53,1.92.85,3.89,1.39,5.8.15.5.77.86,1.17,1.29.39-.44,1-.81,1.13-1.32.39-1.45.62-3,.87-4.45.76-4.55,3.48-7.21,7.9-8.24a30.82,30.82,0,0,0,3-.76C393,223.8,393.25,223.38,393.83,222.88Zm9.46,46.66c-.66-.56-1-1.1-1.56-1.27a30.37,30.37,0,0,0-3-.65c-2.87-.65-5.25-2-6.48-4.82a29.33,29.33,0,0,1-1.39-4.56c-.26-1-.3-2.06-.62-3a1.59,1.59,0,0,0-1.14-.95c-.41,0-.94.49-1.21.9a4.29,4.29,0,0,0-.32,1.39c-.37,1.55-.7,3.12-1.13,4.66a8.46,8.46,0,0,1-7,6.39c-.86.17-1.72.34-2.59.49s-1.46.38-1.45,1.29.74,1.15,1.47,1.31c.55.12,1.1.18,1.65.3,4.35.95,7.4,3.29,8.38,7.84.32,1.48.6,3,.94,4.45.16.71.42,1.58,1.32,1.36.45-.11.9-.83,1.06-1.36.44-1.53.7-3.11,1.09-4.66a9.52,9.52,0,0,1,7.28-7.2c1.07-.3,2.2-.43,3.26-.75C402.24,270.52,402.61,270.06,403.29,269.54Z" transform="translate(-18.77 -136.59)"/><path d="M391.87,432c-.15.66-.34,1.31-.43,2a58.94,58.94,0,0,1-2.88,12.35,23.66,23.66,0,0,1-13.3,14.31c-7.14,3.07-14.64,4.57-22.27,5.54a131.07,131.07,0,0,1-13.13.95,27.16,27.16,0,0,1-10.54-2c-8.34-3.22-13.31-9.4-15.61-17.88a103.15,103.15,0,0,1-3.11-34c1.07-15.88,2.42-31.74,3.35-47.62a320.43,320.43,0,0,0,0-37.19c-.95-16.68-2.32-33.35-3.31-50-.62-10.32-.5-20.65,1.66-30.82,1.21-5.67,3.7-10.73,8.55-14.3a15.41,15.41,0,0,1,8.17-3.15,34.36,34.36,0,0,1,19.88,4.23c5.72,3.21,9,8.26,10.74,14.41s1.94,12.3,1.73,18.56C361,279,359.53,290.6,358,302.17a383.65,383.65,0,0,0-3.49,66.28,113.07,113.07,0,0,0,2.21,20.25c.57,2.56,1.8,2.79,3.75,1.85a20.18,20.18,0,0,0,3.23-2c1.86-1.39,3.63-2.9,5.48-4.29a28.65,28.65,0,0,1,3.76-2.56,9.38,9.38,0,0,1,11.11,1.48,20.57,20.57,0,0,1,4.92,7.58,50.44,50.44,0,0,1,3.36,16.13c.05.86,0,1.73,0,2.59l.48.07a9.56,9.56,0,0,0,.47-1.43c1.22-6.93,2.25-13.89,3.67-20.78,3.2-15.42,6.7-30.77,9.86-46.2,2.56-12.45,4.73-25,7.2-37.44,1.36-6.9,2.84-13.78,4.58-20.59a39.32,39.32,0,0,1,3.5-8.38c4.17-8,9.91-10.11,18.6-8.69,7.7,1.25,14.28,5,20.27,9.88,11,8.9,17.57,20.5,20.71,34.21,2.28,10,4.48,20,7.24,29.82,2.89,10.3,5.91,20.59,10.46,30.35a38,38,0,0,1,3.83,14.27c.41,8.18-2.48,15.19-7.4,21.52a62.09,62.09,0,0,1-20.63,16.88,15.6,15.6,0,0,1-8.56,1.93c-6.48-.53-10.41-4.74-10.85-11.55-.3-4.51.48-8.93,1.15-13.36a51.53,51.53,0,0,0,.67-6.43c0-2-.48-2.43-2.5-2.14a57.14,57.14,0,0,0-13.81,3.9,3.79,3.79,0,0,0-2.37,4.06c.19,3.27.47,6.53.71,9.8.34,4.71.88,9.4.38,14.13-.92,8.8-5.22,15.67-12.06,21a30.1,30.1,0,0,1-10.65,5.38,24.4,24.4,0,0,1-12.09.39,14.22,14.22,0,0,1-9.48-7.14A37.11,37.11,0,0,1,391.87,432Zm-78.11-12.3h.11a33.24,33.24,0,0,0,0,3.6c.63,5.8,1.23,11.6,2,17.37a38.73,38.73,0,0,0,1.68,7.23c2.53,7.45,7.37,12.65,15.17,14.66a34.51,34.51,0,0,0,5.92.88,66.91,66.91,0,0,0,16.47-1.07A90.2,90.2,0,0,0,372.8,458a18.81,18.81,0,0,0,8.2-5.65,24.93,24.93,0,0,0,5.62-11.78c.88-5.44,1.63-10.91,2.19-16.39a79.32,79.32,0,0,0-2.1-29,24,24,0,0,0-3.25-7.44c-2.57-3.75-6.08-4.6-9.95-2.16a60.81,60.81,0,0,0-5.88,4.52c-2.12,1.72-4.19,3.5-6.87,4.28-3.58,1.05-5.81.07-7-3.46a39.33,39.33,0,0,1-1.67-7.95c-.54-5.24-.87-10.51-1.16-15.78a282.16,282.16,0,0,1,.85-41.22c1.31-14.24,3.24-28.43,4.83-42.65.89-7.95,1.61-15.92,1.12-23.93a51.81,51.81,0,0,0-1.51-9.92,18.5,18.5,0,0,0-8.61-11.67,30.08,30.08,0,0,0-18.43-4c-4.78.41-8.11,3.07-10.51,7.07a25.3,25.3,0,0,0-3,8.06,94.33,94.33,0,0,0-1.78,22.91c.53,12.3,1.59,24.57,2.35,36.86.59,9.57,1.2,19.15,1.55,28.73.56,15.61-.32,31.18-1.45,46.74Q315.08,401.92,313.76,419.73ZM395.45,425c.1,1.45.14,4.34.57,7.18a37.16,37.16,0,0,0,1.86,7.42,10.48,10.48,0,0,0,8.92,7.07,29.74,29.74,0,0,0,5.25.24c6.59-.27,11.92-3.41,16.57-7.77a24.21,24.21,0,0,0,8-18.38c0-3.11-.19-6.23-.36-9.34-.23-4.07-.58-8.13-.78-12.21a7,7,0,0,1,4.2-6.94,15.66,15.66,0,0,1,2.86-1.24c4-1.1,8-2.25,12.06-3.12,3.78-.82,6.06,1,6.38,4.81a24,24,0,0,1-.15,4.79c-.42,3.81-1.06,7.6-1.39,11.42a22.5,22.5,0,0,0,.22,6.19c.84,4.23,3.58,6.22,7.87,6.21a14.91,14.91,0,0,0,6.86-1.92A54.9,54.9,0,0,0,495.81,400a24.55,24.55,0,0,0,3.76-17A48,48,0,0,0,496,371.1c-2.05-5-4.25-10-6-15.17a399.57,399.57,0,0,1-11.65-44.26c-3.17-14.94-10.58-27.16-23.33-35.86a36.3,36.3,0,0,0-17-6.57c-5.52-.55-9.75,1.4-12.34,6.36a38.26,38.26,0,0,0-3.34,7.67c-1.68,6.33-3.14,12.72-4.42,19.14-2.75,13.72-5.21,27.5-8,41.2-3.38,16.61-7,33.16-10.46,49.76A178.58,178.58,0,0,0,395.45,425Z" transform="translate(-18.77 -136.59)"/><path d="M333.52,573.92c-1.59,5.73-5.8,7.2-11.14,7a27.84,27.84,0,0,0,0,3.67Q324.14,597,326,609.48c.45,3.09,1.09,6.15,1.41,9.25a24.86,24.86,0,0,1,0,6.45,12.63,12.63,0,0,1-15.09,10.32c-7-1.27-11.2-6.34-11.47-13.9-.22-6.07-.33-12.15-.58-18.22s-.62-12.14-1-18.21a21.34,21.34,0,0,0-.34-2.15c-2.73.52-5.39,1.34-8.05.31s-4.31-3.18-5.55-5.92c-.79,1.07-1.4,2-2.08,2.79-3,3.67-8.12,4.72-12,1.71a60.91,60.91,0,0,1-5-4.77c-.66-.65-1.19-1.84-2.29-1.1s-.26,1.84.29,2.47a78.1,78.1,0,0,0,5.57,5.93,49.33,49.33,0,0,1,7.38,8.49,26.71,26.71,0,0,1,0,30.23c-4.82,7.24-11.51,10.58-20.13,10.29a34.8,34.8,0,0,1-14.44-4,21.43,21.43,0,0,1-7.77-6.62,19.92,19.92,0,0,1-1-21.54c2.28-3.66,5.49-5.75,10-5.41,3.46.27,6,2.17,7.93,4.82.86,1.15,1.47,2.47,2.22,3.7.93,1.53,1.94,2.16,2.78,1.75s.86-1.46-.15-3.21c-1.78-3.1-4.44-5.43-7.09-7.75a36.33,36.33,0,0,1-6.56-7.28c-4.78-7.22-4.7-14.75-1.33-22.4,4-9,11.13-13,20.7-13.34a28.31,28.31,0,0,1,15.8,4.09,18.61,18.61,0,0,1,6.78,6.7c.29-.23.53-.33.61-.5,1.58-3.71,4.71-5,8.42-5.39,6.36-.64,12.73-1.23,19.09-1.89,2.31-.23,4.62-.51,6.89-.93,3.82-.7,7.5-.93,10.52,2.41.66-1.12,1.12-2,1.7-2.86a14,14,0,0,1,13.62-5.21,9.65,9.65,0,0,1,6.86,5.52,66.44,66.44,0,0,1,2.65,6.93c2.57,7.56,5,15.18,7.67,22.71a53.75,53.75,0,0,0,3.64,7.28c.44.81,1,1.81,2.18,1.53s1.37-1.52,1.36-2.53a15.8,15.8,0,0,0-.48-3.55,84.21,84.21,0,0,0-5.74-15.23c-1.85-4.08-3.92-8.06-5.71-12.16a41,41,0,0,1-2.28-6.79c-1.57-6.39,2.64-13,10.26-14.46a11.32,11.32,0,0,1,7.77,1.24c.17-.75.31-1.34.45-1.94a15.43,15.43,0,0,1,3.73-7.14c4.13-4.39,8.39-8.59,14-11.09a27.7,27.7,0,0,1,24.55.41c6.08,3,10.94,7.46,15.22,12.61a66.9,66.9,0,0,1,9.67,14.82c3.22,7,4.67,14.27,3.11,21.93a20.6,20.6,0,0,1-1.81,5.44,43.36,43.36,0,0,1-16.45,17.67c-5.9,3.46-11.25,2.8-16.22-2a62.28,62.28,0,0,1-6-7.1c-6.32-8.25-12.56-16.57-18.84-24.85a5.53,5.53,0,0,0-1.86-1.63c.19.63.35,1.28.59,1.89q3.87,10.08,7.76,20.14a52.63,52.63,0,0,1,3.72,15.57c.68,10.44-3.13,18.7-12.71,23.86-6.13,3.3-12.54,4.71-19.42,2.76a24.32,24.32,0,0,1-11.35-7.3,48.73,48.73,0,0,1-9.42-16c-2.51-6.57-4.88-13.19-7.32-19.79-.4-1.08-.87-2.15-1.3-3.22Zm108.45-11a34.42,34.42,0,0,0-3.58-14.82A67.37,67.37,0,0,0,428,532.61a41.08,41.08,0,0,0-10.33-8.88c-4.95-2.84-10.23-4.48-16-3.91-9.89,1-16.55,7-22.35,14.31a7.63,7.63,0,0,0-1,7.32,15.55,15.55,0,0,0,2.27,4.44c2.92,4,6,7.89,9,11.84,6.08,8,12.11,16.1,18.21,24.12a42.85,42.85,0,0,0,4.19,4.92c4.33,4.23,8.26,4.69,13.45,1.62a20.8,20.8,0,0,0,4.44-3.23,118.67,118.67,0,0,0,8-9.19A21.63,21.63,0,0,0,442,562.94Zm-49.61,33.12c-.07-.73-.13-1.68-.25-2.63A68.54,68.54,0,0,0,388,577.94q-4.94-13-9.92-26a64.47,64.47,0,0,0-2.69-6.14,7.87,7.87,0,0,0-5.63-4.46c-6.41-1.26-11.51,3.56-10.52,10a20.68,20.68,0,0,0,1.21,4.37,51.29,51.29,0,0,0,2.7,5.88,129.67,129.67,0,0,1,8,18.47,77.64,77.64,0,0,1,2.28,7.81,8.35,8.35,0,0,1-.4,5.19,4.48,4.48,0,0,1-3.32,2.83,4.61,4.61,0,0,1-5.1-1.82,34.82,34.82,0,0,1-3.31-5.54c-3.93-8.34-6.53-17.16-9.24-25.95a66.85,66.85,0,0,0-2.61-7,5.86,5.86,0,0,0-3.29-3.33,9.39,9.39,0,0,0-9.11,1.29,8,8,0,0,0-3.5,8.15,25.85,25.85,0,0,0,1.17,4.39c.95,2.71,2,5.39,3,8.08,3.43,8.87,6.8,17.76,10.34,26.59a32.06,32.06,0,0,0,7,10.56,19.78,19.78,0,0,0,14.28,6.4A24,24,0,0,0,380.64,615C388.17,611.08,392.07,604.81,392.36,596.06ZM263,555.51c-8.66.08-15.06,3.89-18.49,12-2.84,6.66-2.7,13.27,1.87,19.3a40.85,40.85,0,0,0,3.52,3.92c2.64,2.68,5.33,5.3,8,8a9.57,9.57,0,0,1,2.82,5.71c.22,1.82.07,3.59-1.68,4.67a4.67,4.67,0,0,1-5.43-.06,14.65,14.65,0,0,1-3-3.31c-.8-1.09-1.26-2.43-2.05-3.52a6.57,6.57,0,0,0-9.53-1.41,10.87,10.87,0,0,0-2.8,3.51,15.57,15.57,0,0,0,2.44,17.65c6.13,6.62,13.89,8.84,22.66,7.79a17.25,17.25,0,0,0,13.24-8.56c5.45-9.13,5.63-18.9-1.23-27.79-2-2.65-4.51-5-6.79-7.43-1.41-1.53-2.94-3-4.21-4.59a13.13,13.13,0,0,1-2-3.77,3.65,3.65,0,0,1,1-4.17,3.84,3.84,0,0,1,4.27-.67,14.85,14.85,0,0,1,3.42,2.53c.95.84,1.67,1.93,2.6,2.81,3.33,3.15,7.51,2.54,9.89-1.39A12.68,12.68,0,0,0,278,560.19,27,27,0,0,0,263,555.51Zm24.66,13.56h-.08c.1,1.27.13,2.55.34,3.81a23.75,23.75,0,0,0,.95,3.71c1.11,3.19,2.66,4.09,6,3.59.79-.12,1.57-.36,2.36-.44a22.83,22.83,0,0,1,3.1-.14,1.69,1.69,0,0,1,1.78,1.82c.11,1.68.37,3.34.45,5,.51,10.93.95,21.87,1.5,32.8a26.9,26.9,0,0,0,.94,6.13,9.44,9.44,0,0,0,9.14,6.84c4.77-.09,10.13-2.35,9.92-9.8a52,52,0,0,0-.65-5.95c-1.44-9.88-2.94-19.76-4.36-29.64a64.86,64.86,0,0,1-.54-6.69c-.06-1.78.44-2.25,2.22-2.41,1-.1,2.08-.08,3.12-.13,4.09-.19,6.12-2.05,6.63-6.1a22,22,0,0,0-1.46-10.58,4.85,4.85,0,0,0-5.14-3.49c-1,0-2.08.05-3.11.16l-26.46,2.82c-4.43.47-6.52,2.71-6.69,7.22C287.67,568.11,287.68,568.59,287.68,569.07Z" transform="translate(-18.77 -136.59)"/><path d="M194.4,282c-.83,12.36-1.7,24.73-2.49,37.1-.87,13.49-1.55,27-.72,40.52.61,10,1.47,20.09,2.29,30.13.91,11.16,2,22.3,2.8,33.47a45.49,45.49,0,0,1-2.83,18.85c-2,5.57-6.59,8.87-12.4,8.25-11.21-1.19-21.07-5.29-28-14.71-3.22-4.36-4.71-9.37-5.39-14.69-.91-7.08.06-14,1.24-21,1-5.76,1.93-11.51,2.79-17.29a29.77,29.77,0,0,0,.23-5.26c-.07-2.51-1-3.91-3.42-4.22a110.6,110.6,0,0,0-11.93-.77c-2,0-2.72.91-2.54,3,.32,3.74.82,7.47,1.31,11.19.94,7.21,2,14.41,2.88,21.63a32.72,32.72,0,0,1-.7,12.15c-1.25,4.85-4.53,7.07-9.47,6.22a34.67,34.67,0,0,1-7.35-2.09,58,58,0,0,1-21.74-15C92.27,402,89.76,393,90.81,383.06c.49-4.69,1.31-9.35,2.25-14,1.88-9.16,1.46-18.29.12-27.44-.93-6.33-2-12.63-2.71-19-1-9.63,2-18.18,8-25.66a71.48,71.48,0,0,1,15.61-14.45,37,37,0,0,1,9.2-4.58c6-2,10.68.23,12.66,6.24a23.52,23.52,0,0,1,1.07,5.39A79.44,79.44,0,0,1,135.85,309c-.86,5.29-1.68,10.58-2.41,15.89a16.66,16.66,0,0,0,.06,4.29c.19,1.56.74,2.09,2.22,1.89,4.59-.63,9.17-1.34,13.72-2.18,1.77-.33,2.25-1,2.1-3-.28-3.66-.73-7.31-1.24-10.94-1.08-7.59-2.55-15.15-3.28-22.77a94,94,0,0,1,.08-15.56A25.59,25.59,0,0,1,154.18,261,39.67,39.67,0,0,1,177,248.24c5.83-1,11.55.93,14.5,7.54a28.76,28.76,0,0,1,2.58,10.89c.16,5.12,0,10.24,0,15.36Zm-3.59-1.29c0-2.31,0-3.91,0-5.51,0-4.48.13-9-1-13.36a29.63,29.63,0,0,0-2.65-6.63,6.53,6.53,0,0,0-6.34-3.59,39.12,39.12,0,0,0-7.09.94A32.77,32.77,0,0,0,163,257.8c-7.13,4.92-11.71,11.53-12.47,20.35a91.8,91.8,0,0,0,.74,20.82c.94,6.56,2.23,13.08,3.28,19.63a42.29,42.29,0,0,1,.64,6.91c0,3.77-1.77,6-5.42,6.92-2.94.74-6,1.24-8.94,1.74a28.05,28.05,0,0,1-5,.49c-3.74,0-5.66-1.75-5.94-5.48a34.38,34.38,0,0,1,.23-7.17c.68-5.07,1.76-10.09,2.36-15.16s1-10,1.07-15.05a25,25,0,0,0-1.16-7.3c-.88-3.05-3.26-4.27-6.35-3.57a16.25,16.25,0,0,0-3.63,1.19,72,72,0,0,0-6.51,3.57c-6.1,3.85-10.89,9.1-15.41,14.64a30,30,0,0,0-6.26,14.84c-.77,5.14,0,10.2.77,15.27.94,6.32,2,12.64,2.6,19a85.37,85.37,0,0,1-2,26.21,50.26,50.26,0,0,0-1.27,14.05,27,27,0,0,0,5,14.52c7,9.53,16.41,15.54,27.71,18.66,4.66,1.28,6.8,0,7.29-4.81a57.51,57.51,0,0,0,0-11.95c-.72-6.75-2-13.44-2.88-20.17a97.42,97.42,0,0,1-1.08-10.48c-.13-4.25,1.51-6,5.69-6.55a34,34,0,0,1,13.09.81,7.62,7.62,0,0,1,6.19,7,13.85,13.85,0,0,1,.07,3.34c-.72,5.63-1.39,11.27-2.34,16.86-1.2,7-2.48,14-2.12,21.19.41,8,3,15.09,9.26,20.36,6,5.1,13.28,7.59,21.08,8.38a7.36,7.36,0,0,0,7.5-3.79,26.56,26.56,0,0,0,2.35-5.73,44.78,44.78,0,0,0,1.52-16.16c-.7-9.32-1.72-18.62-2.51-27.94-.94-11.15-2-22.3-2.58-33.47-.87-17.44.18-34.86,1.42-52.25C189.68,298.4,190.25,289.22,190.81,280.75Z" transform="translate(-18.77 -136.59)"/><path d="M307.14,351.2c-.31,16.44-1.31,32.79-4.05,49a168.52,168.52,0,0,1-9.62,35.58c-3.51,8.62-7.79,16.85-14.25,23.73-4.74,5.05-10.24,8.89-17,10.74a32.08,32.08,0,0,1-21.79-1.74c-7.07-3.09-12.61-8.07-17.24-14.16-6.37-8.37-10.62-17.82-14-27.69-5.14-14.82-7.65-30.18-9.24-45.72a263.24,263.24,0,0,1-1.24-37.87c.41-9.73,1.28-19.46,2.19-29.17a177.51,177.51,0,0,1,4.42-26c2.85-11.51,6.41-22.78,12-33.3a65.84,65.84,0,0,1,15.94-20.22,32.54,32.54,0,0,1,39.85-.76c6.67,5.07,11.24,11.73,15.09,19A128.53,128.53,0,0,1,298.2,279,237,237,0,0,1,306,326.28C306.48,334.58,306.75,342.9,307.14,351.2Zm-3.62,3c-.33-9-.43-18.08-1-27.09a234.19,234.19,0,0,0-5.19-36.77,166,166,0,0,0-8.81-28.61c-3.35-7.84-7.43-15.19-13.34-21.48a29,29,0,0,0-39.32-3.29,50.53,50.53,0,0,0-10.17,10.78,89.76,89.76,0,0,0-10,18.83c-4.85,12.09-7.7,24.72-9.91,37.5A279.8,279.8,0,0,0,202,350.37c-.1,17.71,1,35.33,4.66,52.71,2.2,10.51,4.66,20.92,9,30.81a84.53,84.53,0,0,0,9.76,17.57c3.95,5.2,8.45,9.85,14.34,12.87,7,3.6,14.47,4.73,22.09,2.38,7.17-2.21,12.84-6.7,17.43-12.59,5.87-7.55,9.83-16.1,12.93-25.05a198.84,198.84,0,0,0,9.41-44C302.7,374.81,303.32,364.51,303.52,354.17Z" transform="translate(-18.77 -136.59)"/><path d="M193.31,549c-1.91-.84-3.66-1.58-5.38-2.38a11,11,0,0,1-4.78-3.87,7.66,7.66,0,0,1-1.28-5.71c1.07-5.94,4.36-10.64,8.76-14.5,2.36-2.08,5.41-2.29,8.39-1.17a16.09,16.09,0,0,1,3.38,1.79c6.95,4.72,13.86,9.49,20.78,14.25.59.4,1.19.81,1.75,1.25a8.58,8.58,0,0,1,2.87,10.5,28,28,0,0,1-15.18,15.82c-7.22,3.23-14.3,6.78-21.44,10.19-.64.31-1.23.7-2.27,1.28a23.6,23.6,0,0,0,2.46,1.27c1.5.55,3,1,4.55,1.51,4.38,1.49,6.72,4.81,6.13,9.38a23.32,23.32,0,0,1-9.51,16.32c-3.42,2.53-7.15,2-10.6-.09s-7-4.48-10.42-6.85c-4.54-3.14-9-6.33-13.46-9.62-5.31-4-6.1-6.94-3.62-13.06,2.21-5.45,5.7-9.81,11.07-12.44,5.17-2.54,10.37-5,15.54-7.52q5.72-2.79,11.4-5.62A5.36,5.36,0,0,0,193.31,549Zm-36.75,31.65a4.6,4.6,0,0,0,2.11,3.87c2.42,1.84,4.88,3.62,7.32,5.42a173.78,173.78,0,0,0,17.69,11.92c3.15,1.78,5.17,1.73,7.9-.61a22,22,0,0,0,6.79-11.08,10.85,10.85,0,0,0,.2-2.86,4.71,4.71,0,0,0-3.13-4.66c-1-.43-2.12-.73-3.15-1.15-2.08-.83-4.17-1.64-6.19-2.58-1.07-.5-2.29-1.08-2.27-2.52S185,574.51,186,574c4.83-2.49,9.66-5,14.54-7.37,4.45-2.18,9-4.14,13.45-6.34,5.58-2.77,8.61-7.69,10.69-13.3a4.35,4.35,0,0,0-1.31-5,40.91,40.91,0,0,0-4-3.11q-8.08-5.6-16.23-11.1c-1.25-.86-2.51-1.71-3.83-2.46-3-1.7-5.39-1.42-7.85.94a22.7,22.7,0,0,0-5.85,10.06c-1.05,3.44.15,5.63,3.47,7.18,1,.47,2.1.76,3.13,1.18a55.92,55.92,0,0,1,5.95,2.53c2.06,1.13,2,2.37,0,3.4q-7.28,3.67-14.61,7.25c-5.53,2.7-11.12,5.28-16.63,8-5.28,2.62-8.24,7.16-9.95,12.63A18.69,18.69,0,0,0,156.56,580.61Z" transform="translate(-18.77 -136.59)"/><path d="M133.62,539.59c-1.9,1.54-3.52,3-5.25,4.25-4.93,3.68-9.7,3.53-14.42-.39a16.4,16.4,0,0,1-1.91-1.81,15.16,15.16,0,0,1-3.73-7.41c-1-5.3,1-9.51,5.42-12.39,3.94-2.58,8.06-4.88,12.19-7.16,8.67-4.8,17.38-9.52,26.1-14.23,3.16-1.72,6.33-3.42,9.57-5a14.37,14.37,0,0,1,10.24-1.3c7.12,1.9,15.75,10.49,14.15,20.29a18.45,18.45,0,0,1-1.91,5.88c-2.91,5.24-5.9,10.44-9.16,15.46-5.1,7.84-10.45,15.51-15.66,23.27-1.52,2.25-2.86,4.63-4.45,6.83a25.14,25.14,0,0,1-4,4.46,9.82,9.82,0,0,1-11.42,1.29,20.11,20.11,0,0,1-7.4-6.33,11.46,11.46,0,0,1,.61-14.6c1.4-1.63,3-3.07,4.55-4.61.49-.49,1-1,1.61-1.69Zm49-27.16c-.17-6.49-3.6-10.89-9.11-13.87a9.58,9.58,0,0,0-8.79-.46c-3.36,1.49-6.72,3-10,4.72-7.35,3.89-14.64,7.9-21.92,11.91-5.12,2.81-10.23,5.63-15.25,8.6a24.74,24.74,0,0,0-4.42,3.64,6.18,6.18,0,0,0-1.74,4.59c0,4,3.45,9.4,7.09,11a6.22,6.22,0,0,0,5.56-.11,18.48,18.48,0,0,0,2.43-1.54c1.72-1.31,3.36-2.71,5.09-4,2-1.5,2.28-1.5,4.1.14s3.78,3.46,5.59,5.26,1.91,2.49,0,4.55-4.26,4.34-6.23,6.65a7.51,7.51,0,0,0-.42,9.51,17.41,17.41,0,0,0,5.23,4.88c3.57,2.28,6.63,2.1,10.08-1.39a23.08,23.08,0,0,0,2.47-3.24c1.13-1.65,2.16-3.36,3.29-5,7.17-10.59,14.63-21,21.14-32,1.3-2.21,2.65-4.38,3.88-6.63A14.59,14.59,0,0,0,182.66,512.43Z" transform="translate(-18.77 -136.59)"/><path d="M109.76,490.79c-2,1.29-3.76,2.64-5.69,3.71A24.54,24.54,0,0,1,98.4,497a12.56,12.56,0,0,1-14.47-6.72c-2.89-5.63-2.25-11.61,2.59-16A30.09,30.09,0,0,1,93.07,470c3.77-1.92,7.79-3.36,11.56-5.27,8.12-4.13,16.16-8.42,24.23-12.65,2.26-1.19,4.5-2.42,6.77-3.61,6.05-3.16,11.21-1.45,15.21,3.73a52.76,52.76,0,0,1,4.74,7.76c2.4,4.52,4.66,9.13,5.56,14.24a23.52,23.52,0,0,1-5.67,20.5c-6.35,7.24-14.5,10.35-23.91,10.15a23.19,23.19,0,0,1-19.15-10.22C111.53,493.37,110.69,492.12,109.76,490.79Zm22.88,10.67A26.09,26.09,0,0,0,146,498.08c6.4-3.62,10.6-8.92,11.89-16.25a21.76,21.76,0,0,0-1.6-12.21c-1.5-3.61-3.31-7.09-5.08-10.58a34.71,34.71,0,0,0-2.85-4.71c-3-4.06-6.57-5-11.15-2.91-2,.93-4,2-5.95,3.12a258.91,258.91,0,0,1-25.91,13.52c-4.68,2-9.36,4.15-13.84,6.59-5.39,2.94-7,8.11-4.61,13.74a8.27,8.27,0,0,0,8.24,5.43,14.39,14.39,0,0,0,8.64-3.13c1.73-1.28,3.43-2.62,5.16-3.91s2.34-1.18,3.37.66c.47.83.87,1.7,1.31,2.56C117.61,497.72,124.13,501.26,132.64,501.46Z" transform="translate(-18.77 -136.59)"/><path d="M454.11,450.87a32.12,32.12,0,0,1,10.69,1.73,70.37,70.37,0,0,1,26.92,15.25c5.79,5.37,9.71,11.77,10.83,19.78,2,14.16-9.27,27.69-23.56,28.18a41.91,41.91,0,0,1-13.94-2c-8.31-2.59-16.18-6-23-11.62A42.94,42.94,0,0,1,429,484.76c-2.86-7.27-2.62-14.44,1.31-21.25,4.38-7.62,11.07-11.76,19.83-12.54.55-.05,1.11-.08,1.67-.09S453.07,450.87,454.11,450.87Zm22.11,61.54c6.16,0,10.2-1.18,13.77-3.8,9.52-7,12.19-19.08,6.06-30A40.17,40.17,0,0,0,479.56,463a133.61,133.61,0,0,0-13.26-6.11,33.43,33.43,0,0,0-15.24-2.64c-8.21.65-14.43,4.46-18.19,11.87s-2.52,14.81,1.34,21.79a40,40,0,0,0,10.05,11.81,61.36,61.36,0,0,0,18.81,9.86A47.26,47.26,0,0,0,476.22,512.41Z" transform="translate(-18.77 -136.59)"/><path d="M462.89,551.44c-3.54,0-6.36-1.59-8.85-3.82-4.94-4.42-9.7-9-14.72-13.39-6.47-5.58-13.11-11-19.69-16.43-1.91-1.58-4-3-5.75-4.71a24.51,24.51,0,0,1-3.73-4.63,9.48,9.48,0,0,1-.48-9.19,13.85,13.85,0,0,1,5.46-6.8,10.08,10.08,0,0,1,11.11-.13,28.75,28.75,0,0,1,3.83,2.87q15.1,13,31.13,24.77c3.28,2.42,6.74,4.6,9.93,7.13a12.35,12.35,0,0,1,4.6,13.27A13.59,13.59,0,0,1,466,550.91,24.16,24.16,0,0,1,462.89,551.44Zm9.78-14.73a8.32,8.32,0,0,0-3.13-6.5c-1-.83-2-1.62-3-2.36-2.67-1.88-5.43-3.66-8.07-5.59-10.57-7.76-20.69-16.09-30.7-24.55a25.6,25.6,0,0,0-4.77-3.12,5.4,5.4,0,0,0-4.87.09c-6.45,3-7.68,10.56-2.5,15.4.82.76,1.66,1.5,2.53,2.2q6.25,5,12.54,10c8.42,6.65,16.11,14.1,23.95,21.39a22.17,22.17,0,0,0,5.05,3.56,7.34,7.34,0,0,0,7.35-.41A11,11,0,0,0,472.67,536.71Z" transform="translate(-18.77 -136.59)"/><path d="M301.57,534.91H299c-.55-3.26-.9-6.37-1.62-9.38a49.16,49.16,0,0,0-2.73-8.41,21.77,21.77,0,0,0-14.24-12.3c-3.65-1.12-7.46-1.71-11.19-2.53-.23-.05-.48,0-.72-.07-1.26-.23-2-.87-1.85-1.78s.9-1.35,1.84-1.54c3.6-.72,7.23-1.35,10.76-2.31,5.12-1.38,9.64-3.86,12.94-8.18a29.69,29.69,0,0,0,5.2-12.26c.51-2.42.84-4.88,1.27-7.31a5.2,5.2,0,0,1,.48-1.84,1.73,1.73,0,0,1,1.33-.72,1.59,1.59,0,0,1,1.2.89,15.64,15.64,0,0,1,.48,2.83c.73,5.49,1.83,10.86,4.64,15.75a20.7,20.7,0,0,0,10.53,9.38,55.59,55.59,0,0,0,12.21,3.38,16.92,16.92,0,0,1,3.29.61,2.13,2.13,0,0,1,1.2,1.51c0,.52-.71,1.12-1.24,1.5-.34.24-.94.1-1.4.2-3.74.84-7.53,1.49-11.19,2.58-8.56,2.53-13.67,8.55-16.08,16.94-.92,3.22-1.4,6.56-2,9.84C301.84,532.7,301.74,533.73,301.57,534.91ZM300.3,524.1c1.83-5.71,3.78-11.18,8.09-15.44s9.81-6.33,15.56-8.14c-5.69-1.85-11.35-3.54-15.65-7.89s-6.13-10-7.86-16.12c-1.16,3.17-2.05,5.89-3.16,8.52-2,4.77-5.09,8.75-9.79,11.09-3,1.49-6.2,2.5-9.31,3.72-.51.2-1,.42-1.52.63,5.89,1.67,11.2,3.95,15.54,8.09S298.32,518.47,300.3,524.1Z" transform="translate(-18.77 -136.59)"/><path d="M528.45,440.33a10.51,10.51,0,0,1-2.06,1.33c-1.45.42-2.94.74-4.43,1-7.73,1.45-11.3,6.59-12.45,13.92-.14.87-.26,1.74-.42,2.6s-.15,1.94-1.34,1.94-1.32-1.16-1.5-2.09c-.37-1.8-.69-3.61-1.12-5.39a27.67,27.67,0,0,0-1-3,11.77,11.77,0,0,0-8.19-7.45c-2-.59-4-1-6.06-1.45a5.53,5.53,0,0,1-1.61-.42,1.56,1.56,0,0,1-.72-1.09,1.45,1.45,0,0,1,.66-1.12,13.72,13.72,0,0,1,2.31-.59c1.79-.42,3.59-.79,5.35-1.29,4.74-1.34,7.56-4.6,8.86-9.23.58-2.07,1-4.21,1.43-6.31.1-.47,0-1,.26-1.4a2.52,2.52,0,0,1,1.35-1.06c.29-.05.92.6,1.06,1,.31,1,.36,2.05.61,3.05.45,1.86.87,3.74,1.47,5.56a12.6,12.6,0,0,0,9.45,8.67c1.93.48,3.92.75,5.85,1.26A9.49,9.49,0,0,1,528.45,440.33ZM494,440.17c3.38,1.43,6.62,2.2,9,4.6s3.35,5.62,4.78,9.09c1.26-3.58,2.32-6.7,4.76-9s5.74-3.28,9.24-4.6c-3.62-1.25-7-2.14-9.46-4.63s-3.33-5.86-4.5-9.47c-1.41,3.46-2.22,6.77-4.6,9.27S497.52,438.72,494,440.17Z" transform="translate(-18.77 -136.59)"/><path d="M101.94,434.54a9.38,9.38,0,0,1-2,1.33c-1.07.31-2.21.37-3.3.61a32.83,32.83,0,0,0-3.24.85,14,14,0,0,0-9.63,10.13c-.46,1.61-.71,3.28-1,4.92a7.56,7.56,0,0,1-.37,1.87c-.24.49-.8.82-1.22,1.23-.41-.43-1-.79-1.18-1.29a22,22,0,0,1-.56-2.82c-.31-1.4-.57-2.82-1-4.2C76.84,441.86,73.59,438.23,68,437l-4.69-1c-.31-.07-.64-.07-1-.13-.76-.14-1.52-.47-1.36-1.33.09-.49.74-.91,1.2-1.26.23-.18.61-.14.93-.2.71-.13,1.42-.24,2.12-.39,8.66-1.88,11.53-4.56,13.72-13.26.37-1.47.56-3,.84-4.47.15-.79.53-1.36,1.43-1.28s1,.63,1.14,1.32c.38,1.87.8,3.74,1.21,5.61,1.52,7,6.09,10.79,13,12,1.17.22,2.38.34,3.53.65A8.42,8.42,0,0,1,101.94,434.54ZM81.15,420.75c-1.41,3.44-2,6.75-4.57,9.1-2.39,2.22-5.39,3.37-8.59,4.65a5.78,5.78,0,0,0,.94.59c6.15,1.62,9.9,5.57,11.45,11.69a10.46,10.46,0,0,0,.85,1.7c1-3.61,2.15-6.64,4.55-9.05a19.49,19.49,0,0,1,8.73-4.69c-3.14-1.32-6.13-2.57-8.61-4.77C83.24,427.62,82.67,424.19,81.15,420.75Z" transform="translate(-18.77 -136.59)"/><path d="M200.87,607.83c0-7.25,5.4-12.94,12.28-12.94a11.91,11.91,0,0,1,12.34,12.42,12.75,12.75,0,0,1-12.56,13C206.12,620.37,200.87,614.93,200.87,607.83Zm12,8.82c5.9,0,9.93-4.95,9-11a8.43,8.43,0,0,0-10.32-7.08c-3.9.81-6.29,3.53-7.08,8A8.28,8.28,0,0,0,212.83,616.65Z" transform="translate(-18.77 -136.59)"/><path class="cls-1" d="M433.35,242.11c-.35.41-.58.86-1,1a7,7,0,0,1-1.6.43c-2,.48-4.08.83-6.05,1.45a11.77,11.77,0,0,0-8,8c-.74,2.27-1.15,4.64-1.7,7-.11.46,0,1-.26,1.39s-.79.9-1.19.9a1.77,1.77,0,0,1-1.19-.91,6.46,6.46,0,0,1-.31-1.63c-.61-2.48-1.07-5-1.9-7.4a11,11,0,0,0-6.83-7c-1.94-.7-4-1.18-6-1.74-.46-.13-1-.14-1.41-.28-.75-.23-1.7-.35-1.61-1.44s1.06-1,1.81-1.17c2.33-.57,4.68-1,6.95-1.79a10.47,10.47,0,0,0,7-7.06c.85-2.73,1.36-5.57,2-8.36.22-.95-.08-2.36,1.41-2.35,1.28,0,1.18,1.29,1.38,2.18.52,2.34.95,4.7,1.55,7a12.11,12.11,0,0,0,8.19,8.7c2,.71,4.17,1.08,6.25,1.61a7.73,7.73,0,0,1,1.6.45C432.84,241.31,433,241.71,433.35,242.11Zm-20.2,13.6.51-.1c.8-2,1.51-4,2.45-5.87a10.35,10.35,0,0,1,4.5-4.86c1.84-.95,3.77-1.74,6.09-2.8-3.53-1.28-6.52-2.58-8.86-5s-3.13-5.76-4.44-8.84a20.88,20.88,0,0,1-4.09,8.93c-2.17,2.54-5.12,3.8-8.35,4.94C408.31,243.81,411.71,248.87,413.15,255.71Z" transform="translate(-18.77 -136.59)"/><path class="cls-1" d="M393.83,222.88c-.58.5-.86.92-1.25,1a30.82,30.82,0,0,1-3,.76c-4.42,1-7.14,3.69-7.9,8.24-.25,1.49-.48,3-.87,4.45-.14.51-.74.88-1.13,1.32-.4-.43-1-.79-1.17-1.29-.54-1.91-.86-3.88-1.39-5.8a8.94,8.94,0,0,0-7.47-6.88,23.1,23.1,0,0,1-2.33-.53c-.73-.21-1.71-.23-1.72-1.32s.84-1.22,1.64-1.39c.63-.13,1.25-.28,1.88-.39,4.43-.74,7.14-3.26,8.08-7.69.31-1.48.69-3,1.08-4.41.18-.7.39-1.46,1.33-1.44s1.09.77,1.24,1.49c.31,1.49.61,3,1,4.45,1,4.27,3.8,6.68,8,7.58a18,18,0,0,1,2.57.55C392.88,221.81,393.25,222.36,393.83,222.88Zm-14.08-9.33c-1.23,2.23-2,4.23-3.26,5.73s-3.15,2.46-4.62,3.56a29.78,29.78,0,0,1,4.73,3.59,28.58,28.58,0,0,1,3,5c1-1.83,1.69-3.78,2.95-5.24s3.09-2.37,4.83-3.65C383.13,221.21,380.64,218.23,379.75,213.55Z" transform="translate(-18.77 -136.59)"/><path class="cls-1" d="M403.29,269.54c-.68.52-1.05,1-1.51,1.12-1.06.32-2.19.45-3.26.75a9.52,9.52,0,0,0-7.28,7.2c-.39,1.55-.65,3.13-1.09,4.66-.16.53-.61,1.25-1.06,1.36-.9.22-1.16-.65-1.32-1.36-.34-1.48-.62-3-.94-4.45-1-4.55-4-6.89-8.38-7.84-.55-.12-1.1-.18-1.65-.3-.73-.16-1.46-.41-1.47-1.31s.69-1.16,1.45-1.29,1.73-.32,2.59-.49a8.46,8.46,0,0,0,7-6.39c.43-1.54.76-3.11,1.13-4.66a4.29,4.29,0,0,1,.32-1.39c.27-.41.8-.91,1.21-.9a1.59,1.59,0,0,1,1.14.95c.32,1,.36,2,.62,3a29.33,29.33,0,0,0,1.39,4.56c1.23,2.78,3.61,4.17,6.48,4.82a30.37,30.37,0,0,1,3,.65C402.25,268.44,402.63,269,403.29,269.54ZM389,261.37a28.48,28.48,0,0,1-2.91,4.79,27.92,27.92,0,0,1-4.43,3.31,29.41,29.41,0,0,1,4.35,3.38,32.09,32.09,0,0,1,3.06,4.93,23.06,23.06,0,0,1,1.69-3.45,14.09,14.09,0,0,1,2.82-2.9,24.75,24.75,0,0,1,3.27-1.86C392,266.52,392,266.52,389,261.37Z" transform="translate(-18.77 -136.59)"/><path class="cls-2" d="M313.76,419.73q1.32-17.82,2.63-35.63c1.13-15.56,2-31.13,1.45-46.74-.35-9.58-1-19.16-1.55-28.73-.76-12.29-1.82-24.56-2.35-36.86a94.33,94.33,0,0,1,1.78-22.91,25.3,25.3,0,0,1,3-8.06c2.4-4,5.73-6.66,10.51-7.07a30.08,30.08,0,0,1,18.43,4,18.5,18.5,0,0,1,8.61,11.67,51.81,51.81,0,0,1,1.51,9.92c.49,8-.23,16-1.12,23.93-1.59,14.22-3.52,28.41-4.83,42.65a282.16,282.16,0,0,0-.85,41.22c.29,5.27.62,10.54,1.16,15.78a39.33,39.33,0,0,0,1.67,7.95c1.15,3.53,3.38,4.51,7,3.46,2.68-.78,4.75-2.56,6.87-4.28a60.81,60.81,0,0,1,5.88-4.52c3.87-2.44,7.38-1.59,9.95,2.16a24,24,0,0,1,3.25,7.44,79.32,79.32,0,0,1,2.1,29c-.56,5.48-1.31,11-2.19,16.39A24.93,24.93,0,0,1,381,452.32a18.81,18.81,0,0,1-8.2,5.65,90.2,90.2,0,0,1-17.65,4.44,66.91,66.91,0,0,1-16.47,1.07,34.51,34.51,0,0,1-5.92-.88c-7.8-2-12.64-7.21-15.17-14.66a38.73,38.73,0,0,1-1.68-7.23c-.79-5.77-1.39-11.57-2-17.37a33.24,33.24,0,0,1,0-3.6Z" transform="translate(-18.77 -136.59)"/><path class="cls-2" d="M395.45,425a178.58,178.58,0,0,1,4-31.59c3.43-16.6,7.08-33.15,10.46-49.76,2.78-13.7,5.24-27.48,8-41.2,1.28-6.42,2.74-12.81,4.42-19.14a38.26,38.26,0,0,1,3.34-7.67c2.59-5,6.82-6.91,12.34-6.36a36.3,36.3,0,0,1,17,6.57c12.75,8.7,20.16,20.92,23.33,35.86A399.57,399.57,0,0,0,490,355.93c1.72,5.15,3.92,10.14,6,15.17a48,48,0,0,1,3.6,11.89,24.55,24.55,0,0,1-3.76,17,54.9,54.9,0,0,1-21.45,19.42,14.91,14.91,0,0,1-6.86,1.92c-4.29,0-7-2-7.87-6.21a22.5,22.5,0,0,1-.22-6.19c.33-3.82,1-7.61,1.39-11.42a24,24,0,0,0,.15-4.79c-.32-3.85-2.6-5.63-6.38-4.81-4.06.87-8.06,2-12.06,3.12a15.66,15.66,0,0,0-2.86,1.24,7,7,0,0,0-4.2,6.94c.2,4.08.55,8.14.78,12.21.17,3.11.35,6.23.36,9.34a24.21,24.21,0,0,1-8,18.38c-4.65,4.36-10,7.5-16.57,7.77a29.74,29.74,0,0,1-5.25-.24,10.48,10.48,0,0,1-8.92-7.07,37.16,37.16,0,0,1-1.86-7.42C395.59,429.3,395.55,426.41,395.45,425Zm42.51-74c.16,1.16.25,2.76.61,4.31a4.71,4.71,0,0,0,3.66,3.73A19,19,0,0,0,454,358.3a5.57,5.57,0,0,0,3.7-4.63,24.76,24.76,0,0,0,.25-5,146.54,146.54,0,0,0-4.5-25.45,25.09,25.09,0,0,0-1-3.18c-.67-1.69-1.61-3.23-3.64-3.4s-3.14,1.33-4,2.9a19.1,19.1,0,0,0-1.4,3.05C440.18,331.61,438.77,341,438,350.94Z" transform="translate(-18.77 -136.59)"/><path class="cls-3" d="M442,562.94a21.63,21.63,0,0,1-4.12,13,118.67,118.67,0,0,1-8,9.19,20.8,20.8,0,0,1-4.44,3.23c-5.19,3.07-9.12,2.61-13.45-1.62a42.85,42.85,0,0,1-4.19-4.92c-6.1-8-12.13-16.08-18.21-24.12-3-4-6.06-7.84-9-11.84a15.55,15.55,0,0,1-2.27-4.44,7.63,7.63,0,0,1,1-7.32c5.8-7.31,12.46-13.34,22.35-14.31,5.8-.57,11.08,1.07,16,3.91A41.08,41.08,0,0,1,428,532.61a67.37,67.37,0,0,1,10.37,15.51A34.42,34.42,0,0,1,442,562.94Zm-18.33-4.85a13.61,13.61,0,0,0-1.72-6.43,37.17,37.17,0,0,0-8.54-10.84,24.66,24.66,0,0,0-3.48-2.52,8,8,0,0,0-8.62.05c-2.9,1.67-3.34,3.31-1.38,6,3.36,4.56,6.74,9.1,10.23,13.56,1.77,2.25,3.75,4.35,5.72,6.43,1.52,1.6,2.38,1.67,4.18.45A8.37,8.37,0,0,0,423.64,558.09Z" transform="translate(-18.77 -136.59)"/><path class="cls-3" d="M392.36,596.06c-.29,8.75-4.19,15-11.72,19a24,24,0,0,1-11.32,2.76,19.78,19.78,0,0,1-14.28-6.4,32.06,32.06,0,0,1-7-10.56c-3.54-8.83-6.91-17.72-10.34-26.59-1-2.69-2.08-5.37-3-8.08a25.85,25.85,0,0,1-1.17-4.39,8,8,0,0,1,3.5-8.15,9.39,9.39,0,0,1,9.11-1.29,5.86,5.86,0,0,1,3.29,3.33,66.85,66.85,0,0,1,2.61,7c2.71,8.79,5.31,17.61,9.24,25.95a34.82,34.82,0,0,0,3.31,5.54,4.61,4.61,0,0,0,5.1,1.82,4.48,4.48,0,0,0,3.32-2.83,8.35,8.35,0,0,0,.4-5.19,77.64,77.64,0,0,0-2.28-7.81,129.67,129.67,0,0,0-8-18.47,51.29,51.29,0,0,1-2.7-5.88,20.68,20.68,0,0,1-1.21-4.37c-1-6.44,4.11-11.26,10.52-10a7.87,7.87,0,0,1,5.63,4.46,64.47,64.47,0,0,1,2.69,6.14q5,13,9.92,26a68.54,68.54,0,0,1,4.13,15.49C392.23,594.38,392.29,595.33,392.36,596.06Z" transform="translate(-18.77 -136.59)"/><path class="cls-3" d="M263,555.51A27,27,0,0,1,278,560.19a12.68,12.68,0,0,1,3.58,16.47c-2.38,3.93-6.56,4.54-9.89,1.39-.93-.88-1.65-2-2.6-2.81a14.85,14.85,0,0,0-3.42-2.53,3.84,3.84,0,0,0-4.27.67,3.65,3.65,0,0,0-1,4.17,13.13,13.13,0,0,0,2,3.77c1.27,1.63,2.8,3.06,4.21,4.59,2.28,2.46,4.75,4.78,6.79,7.43,6.86,8.89,6.68,18.66,1.23,27.79a17.25,17.25,0,0,1-13.24,8.56c-8.77,1-16.53-1.17-22.66-7.79a15.57,15.57,0,0,1-2.44-17.65,10.87,10.87,0,0,1,2.8-3.51,6.57,6.57,0,0,1,9.53,1.41c.79,1.09,1.25,2.43,2.05,3.52a14.65,14.65,0,0,0,3,3.31A4.67,4.67,0,0,0,259,609c1.75-1.08,1.9-2.85,1.68-4.67a9.57,9.57,0,0,0-2.82-5.71c-2.64-2.67-5.33-5.29-8-8a40.85,40.85,0,0,1-3.52-3.92c-4.57-6-4.71-12.64-1.87-19.3C248,559.4,254.36,555.59,263,555.51Z" transform="translate(-18.77 -136.59)"/><path class="cls-3" d="M287.68,569.07c0-.48,0-1,0-1.44.17-4.51,2.26-6.75,6.69-7.22l26.46-2.82c1-.11,2.07-.12,3.11-.16a4.85,4.85,0,0,1,5.14,3.49,22,22,0,0,1,1.46,10.58c-.51,4-2.54,5.91-6.63,6.1-1,0-2.08,0-3.12.13-1.78.16-2.28.63-2.22,2.41a64.86,64.86,0,0,0,.54,6.69c1.42,9.88,2.92,19.76,4.36,29.64a52,52,0,0,1,.65,5.95c.21,7.45-5.15,9.71-9.92,9.8a9.44,9.44,0,0,1-9.14-6.84,26.9,26.9,0,0,1-.94-6.13c-.55-10.93-1-21.87-1.5-32.8-.08-1.68-.34-3.34-.45-5a1.69,1.69,0,0,0-1.78-1.82,22.83,22.83,0,0,0-3.1.14c-.79.08-1.57.32-2.36.44-3.38.5-4.93-.4-6-3.59a23.75,23.75,0,0,1-.95-3.71c-.21-1.26-.24-2.54-.34-3.81Z" transform="translate(-18.77 -136.59)"/><path class="cls-2" d="M190.81,280.75c-.56,8.47-1.13,17.65-1.79,26.82-1.24,17.39-2.29,34.81-1.42,52.25.55,11.17,1.64,22.32,2.58,33.47.79,9.32,1.81,18.62,2.51,27.94a44.78,44.78,0,0,1-1.52,16.16,26.56,26.56,0,0,1-2.35,5.73,7.36,7.36,0,0,1-7.5,3.79c-7.8-.79-15-3.28-21.08-8.38-6.23-5.27-8.85-12.35-9.26-20.36-.36-7.18.92-14.17,2.12-21.19,1-5.59,1.62-11.23,2.34-16.86a13.85,13.85,0,0,0-.07-3.34,7.62,7.62,0,0,0-6.19-7,34,34,0,0,0-13.09-.81c-4.18.57-5.82,2.3-5.69,6.55A97.42,97.42,0,0,0,131.48,386c.93,6.73,2.16,13.42,2.88,20.17a57.51,57.51,0,0,1,0,11.95c-.49,4.78-2.63,6.09-7.29,4.81-11.3-3.12-20.7-9.13-27.71-18.66a27,27,0,0,1-5-14.52,50.26,50.26,0,0,1,1.27-14.05,85.37,85.37,0,0,0,2-26.21c-.61-6.36-1.66-12.68-2.6-19-.76-5.07-1.54-10.13-.77-15.27a30,30,0,0,1,6.26-14.84c4.52-5.54,9.31-10.79,15.41-14.64a72,72,0,0,1,6.51-3.57,16.25,16.25,0,0,1,3.63-1.19c3.09-.7,5.47.52,6.35,3.57a25,25,0,0,1,1.16,7.3c-.11,5-.48,10.05-1.07,15.05s-1.68,10.09-2.36,15.16a34.38,34.38,0,0,0-.23,7.17c.28,3.73,2.2,5.44,5.94,5.48a28.05,28.05,0,0,0,5-.49c3-.5,6-1,8.94-1.74,3.65-.91,5.41-3.15,5.42-6.92a42.29,42.29,0,0,0-.64-6.91c-1.05-6.55-2.34-13.07-3.28-19.63a91.8,91.8,0,0,1-.74-20.82c.76-8.82,5.34-15.43,12.47-20.35a32.77,32.77,0,0,1,10.75-5.2,39.12,39.12,0,0,1,7.09-.94,6.53,6.53,0,0,1,6.34,3.59,29.63,29.63,0,0,1,2.65,6.63c1.11,4.37,1,8.88,1,13.36C190.8,276.84,190.81,278.44,190.81,280.75Z" transform="translate(-18.77 -136.59)"/><path class="cls-2" d="M303.52,354.17c-.2,10.34-.82,20.64-1.92,30.9a198.84,198.84,0,0,1-9.41,44c-3.1,8.95-7.06,17.5-12.93,25.05C274.67,460,269,464.5,261.83,466.71c-7.62,2.35-15,1.22-22.09-2.38-5.89-3-10.39-7.67-14.34-12.87a84.53,84.53,0,0,1-9.76-17.57c-4.31-9.89-6.77-20.3-9-30.81-3.64-17.38-4.76-35-4.66-52.71A279.8,279.8,0,0,1,205.78,304c2.21-12.78,5.06-25.41,9.91-37.5a89.76,89.76,0,0,1,10-18.83,50.53,50.53,0,0,1,10.17-10.78,29,29,0,0,1,39.32,3.29c5.91,6.29,10,13.64,13.34,21.48a166,166,0,0,1,8.81,28.61,234.19,234.19,0,0,1,5.19,36.77C303.09,336.09,303.19,345.14,303.52,354.17Zm-67.3-4.36h-.11c0,5,0,9.92,0,14.88q0,5.63.21,11.27a5.22,5.22,0,0,0,3.1,5c2.08.93,3.88.2,5.54-1.14,8.88-7.21,17.79-14.37,26.63-21.63a70.16,70.16,0,0,0,6.24-6c2.43-2.57,2.3-4.81-.24-7.31a29.06,29.06,0,0,0-2.69-2.39Q261,331.73,247,321a22.05,22.05,0,0,0-3.84-2.44,4.35,4.35,0,0,0-6.3,2.81,22.06,22.06,0,0,0-.65,5.68C236.18,334.61,236.22,342.21,236.22,349.81Z" transform="translate(-18.77 -136.59)"/><path class="cls-3" d="M156.56,580.61a18.69,18.69,0,0,1,.4-2.11c1.71-5.47,4.67-10,9.95-12.63,5.51-2.74,11.1-5.32,16.63-8q7.34-3.57,14.61-7.25c2-1,2.11-2.27,0-3.4a55.92,55.92,0,0,0-5.95-2.53c-1-.42-2.12-.71-3.13-1.18-3.32-1.55-4.52-3.74-3.47-7.18a22.7,22.7,0,0,1,5.85-10.06c2.46-2.36,4.86-2.64,7.85-.94,1.32.75,2.58,1.6,3.83,2.46q8.13,5.52,16.23,11.1a40.91,40.91,0,0,1,4,3.11,4.35,4.35,0,0,1,1.31,5c-2.08,5.61-5.11,10.53-10.69,13.3-4.44,2.2-9,4.16-13.45,6.34-4.88,2.39-9.71,4.88-14.54,7.37-1,.5-2.15,1-2.16,2.35s1.2,2,2.27,2.52c2,.94,4.11,1.75,6.19,2.58,1,.42,2.12.72,3.15,1.15a4.71,4.71,0,0,1,3.13,4.66,10.85,10.85,0,0,1-.2,2.86,22,22,0,0,1-6.79,11.08c-2.73,2.34-4.75,2.39-7.9.61A173.78,173.78,0,0,1,166,589.9c-2.44-1.8-4.9-3.58-7.32-5.42A4.6,4.6,0,0,1,156.56,580.61Z" transform="translate(-18.77 -136.59)"/><path class="cls-3" d="M182.66,512.43a14.59,14.59,0,0,1-1.93,7.13c-1.23,2.25-2.58,4.42-3.88,6.63-6.51,11-14,21.43-21.14,32-1.13,1.66-2.16,3.37-3.29,5a23.08,23.08,0,0,1-2.47,3.24c-3.45,3.49-6.51,3.67-10.08,1.39a17.41,17.41,0,0,1-5.23-4.88,7.51,7.51,0,0,1,.42-9.51c2-2.31,4.14-4.44,6.23-6.65s2-2.61,0-4.55-3.68-3.55-5.59-5.26-2.08-1.64-4.1-.14c-1.73,1.29-3.37,2.69-5.09,4a18.48,18.48,0,0,1-2.43,1.54,6.22,6.22,0,0,1-5.56.11c-3.64-1.56-7.1-7-7.09-11a6.18,6.18,0,0,1,1.74-4.59,24.74,24.74,0,0,1,4.42-3.64c5-3,10.13-5.79,15.25-8.6,7.28-4,14.57-8,21.92-11.91,3.24-1.72,6.6-3.23,10-4.72a9.58,9.58,0,0,1,8.79.46C179.06,501.54,182.49,505.94,182.66,512.43Zm-19.36,3.35a7.55,7.55,0,0,0-1.22.25,43.59,43.59,0,0,0-13,7.11,7.54,7.54,0,0,0-1.41,1.62,3.66,3.66,0,0,0-.46,3.21c1.21,4.3,5.44,5.5,8.61,2.45a6.2,6.2,0,0,0,.52-.5c2.47-3,5-6,7.37-9.15a8.18,8.18,0,0,0,1.33-3C165.44,516.34,164.89,515.78,163.3,515.78Z" transform="translate(-18.77 -136.59)"/><path class="cls-3" d="M132.64,501.46c-8.51-.2-15-3.74-19-11.46-.44-.86-.84-1.73-1.31-2.56-1-1.84-1.63-2-3.37-.66s-3.43,2.63-5.16,3.91a14.39,14.39,0,0,1-8.64,3.13,8.27,8.27,0,0,1-8.24-5.43c-2.35-5.63-.78-10.8,4.61-13.74,4.48-2.44,9.16-4.55,13.84-6.59a258.91,258.91,0,0,0,25.91-13.52c1.94-1.12,3.91-2.19,5.95-3.12,4.58-2.08,8.17-1.15,11.15,2.91A34.71,34.71,0,0,1,151.2,459c1.77,3.49,3.58,7,5.08,10.58a21.76,21.76,0,0,1,1.6,12.21c-1.29,7.33-5.49,12.63-11.89,16.25A26.09,26.09,0,0,1,132.64,501.46Zm.52-16.45a9.23,9.23,0,0,0,7.9-5.09c1.53-2.85,1-5.57-.88-8.07-1-1.35-1.74-1.51-3.32-.81A39.36,39.36,0,0,0,133,473c-2.28,1.29-4.58,2.59-6.76,4-1.41.93-1.61,1.92-.82,3.28A8.68,8.68,0,0,0,133.16,485Z" transform="translate(-18.77 -136.59)"/><path class="cls-3" d="M476.22,512.41a47.26,47.26,0,0,1-13.15-2.85,61.36,61.36,0,0,1-18.81-9.86,40,40,0,0,1-10.05-11.81c-3.86-7-5.14-14.31-1.34-21.79s10-11.22,18.19-11.87a33.43,33.43,0,0,1,15.24,2.64A133.61,133.61,0,0,1,479.56,463a40.17,40.17,0,0,1,16.49,15.67c6.13,10.88,3.46,23-6.06,30C486.42,511.23,482.38,512.42,476.22,512.41Zm-20.76-41.32c-.61,0-1.25,0-1.88.1-4.94.68-7.27,5.33-4.77,9.63a11.47,11.47,0,0,0,2.36,3c5.09,4.37,10.71,7.83,17.35,9.26a14.1,14.1,0,0,0,5.22.11c4.82-.82,6.94-5.42,4.4-9.62a13.5,13.5,0,0,0-3.7-4,100.49,100.49,0,0,0-10-6.11A20.71,20.71,0,0,0,455.46,471.09Z" transform="translate(-18.77 -136.59)"/><path class="cls-3" d="M472.67,536.71A11,11,0,0,1,467,546.85a7.34,7.34,0,0,1-7.35.41,22.17,22.17,0,0,1-5.05-3.56c-7.84-7.29-15.53-14.74-23.95-21.39q-6.3-5-12.54-10c-.87-.7-1.71-1.44-2.53-2.2-5.18-4.84-3.95-12.37,2.5-15.4a5.4,5.4,0,0,1,4.87-.09,25.6,25.6,0,0,1,4.77,3.12c10,8.46,20.13,16.79,30.7,24.55,2.64,1.93,5.4,3.71,8.07,5.59,1.05.74,2.06,1.53,3,2.36A8.32,8.32,0,0,1,472.67,536.71Z" transform="translate(-18.77 -136.59)"/><path class="cls-4" d="M300.3,524.1c-2-5.63-3.66-11.31-8.1-15.54s-9.65-6.42-15.54-8.09c.5-.21,1-.43,1.52-.63,3.11-1.22,6.33-2.23,9.31-3.72,4.7-2.34,7.78-6.32,9.79-11.09,1.11-2.63,2-5.35,3.16-8.52,1.73,6.11,3.54,11.75,7.86,16.12s10,6,15.65,7.89c-5.75,1.81-11.23,3.87-15.56,8.14S302.13,518.39,300.3,524.1Z" transform="translate(-18.77 -136.59)"/><path class="cls-4" d="M494,440.17c3.48-1.45,6.8-2.26,9.2-4.77s3.19-5.81,4.6-9.27c1.17,3.61,2,7,4.5,9.47s5.84,3.38,9.46,4.63c-3.5,1.32-6.76,2.24-9.24,4.6s-3.5,5.45-4.76,9c-1.43-3.47-2.4-6.68-4.78-9.09S497.42,441.6,494,440.17Z" transform="translate(-18.77 -136.59)"/><path class="cls-4" d="M81.15,420.75c1.52,3.44,2.09,6.87,4.75,9.22,2.48,2.2,5.47,3.45,8.61,4.77a19.49,19.49,0,0,0-8.73,4.69c-2.4,2.41-3.56,5.44-4.55,9.05a10.46,10.46,0,0,1-.85-1.7c-1.55-6.12-5.3-10.07-11.45-11.69a5.78,5.78,0,0,1-.94-.59c3.2-1.28,6.2-2.43,8.59-4.65C79.12,427.5,79.74,424.19,81.15,420.75Z" transform="translate(-18.77 -136.59)"/><path class="cls-3" d="M212.83,616.65a8.28,8.28,0,0,1-8.43-10c.79-4.52,3.18-7.24,7.08-8a8.43,8.43,0,0,1,10.32,7.08C222.76,611.7,218.73,616.64,212.83,616.65Z" transform="translate(-18.77 -136.59)"/><path class="cls-1" d="M413.15,255.71c-1.44-6.84-4.84-11.9-12.19-13.59,3.23-1.14,6.18-2.4,8.35-4.94a20.88,20.88,0,0,0,4.09-8.93c1.31,3.08,2.05,6.38,4.44,8.84s5.33,3.71,8.86,5c-2.32,1.06-4.25,1.85-6.09,2.8a10.35,10.35,0,0,0-4.5,4.86c-.94,1.9-1.65,3.91-2.45,5.87Z" transform="translate(-18.77 -136.59)"/><path class="cls-1" d="M379.75,213.55c.89,4.68,3.38,7.66,7.64,9-1.74,1.28-3.58,2.21-4.83,3.65s-2,3.41-2.95,5.24a28.58,28.58,0,0,0-3-5,29.78,29.78,0,0,0-4.73-3.59c1.47-1.1,3.33-2.08,4.62-3.56S378.52,215.78,379.75,213.55Z" transform="translate(-18.77 -136.59)"/><path class="cls-1" d="M389,261.37c3,5.15,3,5.15,7.85,8.2a24.75,24.75,0,0,0-3.27,1.86,14.09,14.09,0,0,0-2.82,2.9,23.06,23.06,0,0,0-1.69,3.45,32.09,32.09,0,0,0-3.06-4.93,29.41,29.41,0,0,0-4.35-3.38,27.92,27.92,0,0,0,4.43-3.31A28.48,28.48,0,0,0,389,261.37Z" transform="translate(-18.77 -136.59)"/><path d="M438,350.94c.81-9.95,2.22-19.33,5.41-28.36a19.1,19.1,0,0,1,1.4-3.05c.87-1.57,1.92-3.07,4-2.9s3,1.71,3.64,3.4a25.09,25.09,0,0,1,1,3.18,146.54,146.54,0,0,1,4.5,25.45,24.76,24.76,0,0,1-.25,5,5.57,5.57,0,0,1-3.7,4.63,19,19,0,0,1-11.77.68,4.71,4.71,0,0,1-3.66-3.73C438.21,353.7,438.12,352.1,438,350.94Zm10.58-30.78a15.53,15.53,0,0,0-1,1.55,26.84,26.84,0,0,0-1.14,2.9,118.1,118.1,0,0,0-4.76,26.83,11,11,0,0,0,.06,2.15c.21,1.42.92,2.33,2.31,2.32a55.55,55.55,0,0,0,7.84-.56,2.88,2.88,0,0,0,2.46-3.1c0-.64,0-1.28,0-1.92-.33-9.41-2.51-18.5-4.75-27.57A20.73,20.73,0,0,0,448.54,320.16Z" transform="translate(-18.77 -136.59)"/><path d="M423.64,558.09a8.37,8.37,0,0,1-3.61,6.68c-1.8,1.22-2.66,1.15-4.18-.45-2-2.08-4-4.18-5.72-6.43-3.49-4.46-6.87-9-10.23-13.56-2-2.67-1.52-4.31,1.38-6a8,8,0,0,1,8.62-.05,24.66,24.66,0,0,1,3.48,2.52,37.17,37.17,0,0,1,8.54,10.84A13.61,13.61,0,0,1,423.64,558.09ZM418.19,562a9.6,9.6,0,0,0,1.08-1.31,7,7,0,0,0-.23-6.88,37.25,37.25,0,0,0-8.6-11.11,9.29,9.29,0,0,0-2.61-1.65,4.58,4.58,0,0,0-5.49,1C407.47,548.77,412.25,555.7,418.19,562Z" transform="translate(-18.77 -136.59)"/><path d="M236.22,349.81c0-7.6,0-15.2,0-22.8a22.06,22.06,0,0,1,.65-5.68,4.35,4.35,0,0,1,6.3-2.81A22.05,22.05,0,0,1,247,321q14,10.76,27.87,21.59a29.06,29.06,0,0,1,2.69,2.39c2.54,2.5,2.67,4.74.24,7.31a70.16,70.16,0,0,1-6.24,6c-8.84,7.26-17.75,14.42-26.63,21.63-1.66,1.34-3.46,2.07-5.54,1.14a5.22,5.22,0,0,1-3.1-5q-.18-5.64-.21-11.27c0-5,0-9.92,0-14.88Zm4.93-28.41a4.16,4.16,0,0,0-1.35,3.65q0,12,0,24,0,13.08,0,26.15c0,1-.09,2,1,2.45s1.66-.3,2.33-.85c1.6-1.33,3.15-2.71,4.77-4,6.91-5.57,13.86-11.09,20.74-16.68,2.05-1.66,4-3.49,5.88-5.29,1.71-1.61,1.65-2.3-.1-3.9l-.37-.31c-8.66-7.48-17.73-14.43-27-21.18C245.17,324,243.15,322.74,241.15,321.4Z" transform="translate(-18.77 -136.59)"/><path d="M163.3,515.78c1.59,0,2.14.56,1.78,2a8.18,8.18,0,0,1-1.33,3c-2.38,3.11-4.9,6.11-7.37,9.15a6.2,6.2,0,0,1-.52.5c-3.17,3.05-7.4,1.85-8.61-2.45a3.66,3.66,0,0,1,.46-3.21,7.54,7.54,0,0,1,1.41-1.62,43.59,43.59,0,0,1,13-7.11A7.55,7.55,0,0,1,163.3,515.78Zm-4.4,5.47a20.56,20.56,0,0,0-7.15,4.25c-1.54,1.47-1.34,2.19.93,3.31A32.65,32.65,0,0,0,158.9,521.25Z" transform="translate(-18.77 -136.59)"/><path d="M133.16,485a8.68,8.68,0,0,1-7.73-4.75c-.79-1.36-.59-2.35.82-3.28,2.18-1.44,4.48-2.74,6.76-4a39.36,39.36,0,0,1,3.85-1.91c1.58-.7,2.33-.54,3.32.81,1.85,2.5,2.41,5.22.88,8.07A9.23,9.23,0,0,1,133.16,485Zm-4.51-6c2.41,2.75,5.13,3.09,7.75,1.29,2.09-1.44,2.56-3.44,1.23-6Z" transform="translate(-18.77 -136.59)"/><path d="M455.46,471.09a20.71,20.71,0,0,1,9,2.35,100.49,100.49,0,0,1,10,6.11,13.5,13.5,0,0,1,3.7,4c2.54,4.2.42,8.8-4.4,9.62a14.1,14.1,0,0,1-5.22-.11c-6.64-1.43-12.26-4.89-17.35-9.26a11.47,11.47,0,0,1-2.36-3c-2.5-4.3-.17-8.95,4.77-9.63C454.21,471.11,454.85,471.12,455.46,471.09ZM471.1,490c.87,0,1.2,0,1.51,0,3-.27,4.05-2.27,2.42-4.84a11.46,11.46,0,0,0-2.34-2.71,37.1,37.1,0,0,0-16-7.72,8,8,0,0,0-2.62-.12c-2.54.33-3.53,2.31-2.23,4.54a8,8,0,0,0,2.14,2.55,78.15,78.15,0,0,0,8.36,5.55A21.5,21.5,0,0,0,471.1,490Z" transform="translate(-18.77 -136.59)"/><path class="cls-1" d="M448.54,320.16a20.73,20.73,0,0,1,1.07,2.6c2.24,9.07,4.42,18.16,4.75,27.57,0,.64,0,1.28,0,1.92a2.88,2.88,0,0,1-2.46,3.1,55.55,55.55,0,0,1-7.84.56c-1.39,0-2.1-.9-2.31-2.32a11,11,0,0,1-.06-2.15,118.1,118.1,0,0,1,4.76-26.83,26.84,26.84,0,0,1,1.14-2.9A15.53,15.53,0,0,1,448.54,320.16Z" transform="translate(-18.77 -136.59)"/><path class="cls-1" d="M418.19,562c-5.94-6.26-10.72-13.19-15.85-19.9a4.58,4.58,0,0,1,5.49-1,9.29,9.29,0,0,1,2.61,1.65,37.25,37.25,0,0,1,8.6,11.11,7,7,0,0,1,.23,6.88A9.6,9.6,0,0,1,418.19,562Z" transform="translate(-18.77 -136.59)"/><path class="cls-1" d="M241.15,321.4c2,1.34,4,2.6,5.94,4,9.22,6.75,18.29,13.7,27,21.18l.37.31c1.75,1.6,1.81,2.29.1,3.9-1.92,1.8-3.83,3.63-5.88,5.29-6.88,5.59-13.83,11.11-20.74,16.68-1.62,1.3-3.17,2.68-4.77,4-.67.55-1.32,1.26-2.33.85s-1-1.49-1-2.45q0-13.06,0-26.15,0-12,0-24A4.16,4.16,0,0,1,241.15,321.4Z" transform="translate(-18.77 -136.59)"/><path class="cls-1" d="M158.9,521.25a32.65,32.65,0,0,1-6.22,7.56c-2.27-1.12-2.47-1.84-.93-3.31A20.56,20.56,0,0,1,158.9,521.25Z" transform="translate(-18.77 -136.59)"/><path class="cls-1" d="M128.65,479.05l9-4.74c1.33,2.59.86,4.59-1.23,6C133.78,482.14,131.06,481.8,128.65,479.05Z" transform="translate(-18.77 -136.59)"/><path class="cls-1" d="M471.1,490a21.5,21.5,0,0,1-8.8-2.75,78.15,78.15,0,0,1-8.36-5.55,8,8,0,0,1-2.14-2.55c-1.3-2.23-.31-4.21,2.23-4.54a8,8,0,0,1,2.62.12,37.1,37.1,0,0,1,16,7.72,11.46,11.46,0,0,1,2.34,2.71c1.63,2.57.59,4.57-2.42,4.84C472.3,490,472,490,471.1,490Z" transform="translate(-18.77 -136.59)"/></svg>